/* XPM */
static char *result[] = {
/* columns rows colors chars-per-pixel */
"50 50 29 1 ",
"  c #5E7D1C",
". c #607F1E",
"X c #5E7B20",
"o c #617F21",
"O c #5F811D",
"+ c #63831E",
"@ c #68871F",
"# c #66881F",
"$ c #698B1F",
"% c #6D921F",
"& c #658521",
"* c #688722",
"= c #678921",
"- c #6A8B22",
"; c #6E9223",
": c #719425",
"> c #759B25",
", c #789E26",
"< c #729528",
"1 c #759B28",
"2 c #799E28",
"3 c #7BA226",
"4 c #7FA827",
"5 c #7CA329",
"6 c #82AA27",
"7 c #80A62A",
"8 c #82AA2A",
"9 c #89B42C",
"0 c #90BD2F",
/* pixels */
"&&#=++&++&+#=+++&-:+ +++ . @3#%=**&+..++*&:--,#+++",
":#&&&++++&@@+++&*=+->2=+++++>#$=;*.*+.+=*+-@++#++=",
"->$+=++=*&==++&**-&;1;&*++=++*-:-@*&=*+---+%;$:-2>",
",;O=-@-=&=-==+==&*-=Xo--@#==+=>:<23@*+@=<-;>;;:1:>",
";-+&=-=*#===#&=&=-=&&=-;;:-=&@==<22$*@++-=-*=6:&+*",
"+&**=*&&-----2;>2=&=<;*-;:->:@--*+o++&&&&*--=1:=$+",
"-=*&*=*++=&=5>#;-==+;--*--=:-=;=+&&&+=&o&-;--o:>*-",
"==*&-==+&&&;>3>:;-:+-=;;**:;*+****&&*=.&--&***2:==",
"+==-=&+ &:&<32;:&&@&=+-@-;;<*oo*--****+=--O=&====+",
"++&-&+. =<3@;,#;&&= +-$:-=--:-**&-:*>-=&=*&O=*&==*",
"++o&-&+ &&;-;>>+&&-5$#+%-=-*+:::::8,+@+=---O=*-&*+",
"&++&--&=&.o:6;#;52>3& ++-25:-:&-5:-2: .71--O*&==&+",
"+=&&+--&+&&-6-+>;;:=++++15>-=--*&9>o- O1=;;XO&====",
"-&&+&=-+&&+@3@25>-;;==+$<--=+&:=-::&&&->O O=&&---=",
":-@+++ &==&->;=-1,5;-@-;*---=*---&==4,&&<1O&&&*--=",
"+$>-+& &&&;5,;-&O;;-=+&=---&**;--<==;3-&;4-&&&&***",
"&X-;=OO-&&>2&=>==---@+++:$=-----;;--o*;2*&*&=*&=@+",
"&&O;5&&&&&:-@:=+&<<-:-+.*@=-----;--;*&&==******==&",
"&==;,;&*&&&&=@==O*-;-;+&+&**=&*:---=**&&--***=-=O&",
"&&&=O&1<;&=*+--&&&--&&&=&=-*=$=:;&*-&o&&---*-*==*=",
"=&O+&&=:,45==;-&*X+-;;-=---=$@#+;=--.oo***-<-<=*-=",
"=&+++O=>&55:,==-&&X*;=---;;;2:+ $-==@&o**&-*51O&+=",
"+&+&=+--&>,=*==&--&O+-;:<<>;;%=#+@&&********-<X=$+",
"..+&&=+;,-&&--.X-=&&#=;-<1-==>3-&++*==*****<5*&=+ ",
" .++$3=-:==+:--<<-=*-*---217:;;O=$-=**-<&=-;2=O#+ ",
" +++->:>-=65:;-<:--*-----=17:&;++$:-*-*:;---1-#O  ",
"   +*&53-+20,-;;*;*=<*==--:24:>,$$=*-<*&--:>;;;%O ",
" +++*--&3:+>;&--*-:@-=+-<;;;34@,>:---*<***15&-;-+ ",
"-=#@=2==5>=&+=-;-&-=+#+=----&=;>$-$--&=-*1<&;3&=++",
"-=--=-*.;5==::;;<*=2;&=+$;-+--@=--==&&;<*11X&-#;++",
"=----:2;-;=;-;>;-+=;-+&+@$$;,;,;=@+...-<*=1=**=&+#",
"-:-*=37:OO=-<>3;++&=;++#&+#:$+>>:-+..o-:=&==&&==+;",
"-#;-=--:=+>:::::;-++--$++&&=++@-=& ;;#=31=&=&=-==;",
":,==---=+&**&o+=-&=--=-++=+.++-;+=;$>3OO3=O=---*+#",
">1=-1-&** =2@-;&O:<-=+@==O+@&++-==;%=>: =-+O=-=&*#",
"=&;;==&-=o-1-=37,2=-=&+&&++@&+#=-#+; O: =4-&&&&=*+",
"O&+=$-*;:  X;&;>;>;=&-=-+&&++-:+=-;&#==3=>5-&++===",
"+ +=-:=&+>&;62>@+22&&=&-===#@--,8,;=4;=529:=& &&@@",
"++$=&-&O+;=-=>;-<++*+&=;>=--++@55=O=5;-*:2&+&&+&+#",
"++++&+  +&&+&;1;-=&+>-#>;>;+-$+:6-+>5-&>&&&&-&++@#",
"O+&&&&&&o&-*&-1<=>=&;=&++2-+;# =>=O2<&O;-=&-<*&=##",
"++=&O&-=+=--*o -;;:=X*3;>5-&+;- ;1=-&&15&:=--=--++",
" +==&&=&+=--;=:=;34> 2;O3;X& 5,O&;--*&21&=--;--*  ",
"++&-=--*&=1=&=<&;-&>*;-O+&>;++=&-=*--&&**+&:<-*+  ",
"+++$---**&&=&;<;&; :2&;-:1;>>&+&-;-=&=====-+=-& ++",
"O+@--=**&&++&O->==.@=++;5>&&-+&&&=--O*-*-&+#;-&+##",
"O+&-;&+++&-+++&;-&&+  O=>3=&+++==&--&*-=&.+;3=&O  ",
"++---++ +++++&=:=+=++ +OO=#;+&=+-&--**&&&&#5,+:;+#",
"3>-=--++++++&+===+++++ +     ###-==&&+-#&+#,5O$;+;",
"3-++--&&&&++#@+++-2-@+++.  #%%#$---+ &--&#:&-;O+3;"
};
