/* XPM */
static char *result[] = {
/* columns rows colors chars-per-pixel */
"50 50 155 2 ",
"   c #344F1D",
".  c #3E4E1E",
"X  c #38521F",
"o  c #0D562B",
"O  c #035C2E",
"+  c #0C5D2C",
"@  c #344D21",
"#  c #3E4A21",
"$  c #245324",
"%  c #2D5323",
"&  c #345323",
"*  c #395621",
"=  c #345926",
"-  c #3B4934",
";  c #04612F",
":  c #0C622E",
">  c #14632C",
",  c #18692E",
"<  c #046331",
"1  c #0B6530",
"2  c #066E35",
"3  c #0A6C32",
"4  c #067236",
"5  c #0F7131",
"6  c #067B37",
"7  c #067638",
"8  c #067C39",
"9  c #187433",
"0  c #236D2B",
"q  c #396326",
"w  c #34662A",
"e  c #2A722C",
"r  c #337127",
"t  c #397425",
"y  c #3D7B27",
"u  c #35742A",
"i  c #3F7528",
"p  c #357829",
"a  c #3A7B2A",
"s  c #247F38",
"d  c #42571C",
"f  c #455C1E",
"g  c #485E1F",
"h  c #47611D",
"j  c #4A611F",
"k  c #4F6A1D",
"l  c #516B1E",
"z  c #58751F",
"x  c #577D1F",
"c  c #5D7D1D",
"v  c #607F1E",
"b  c #46492B",
"n  c #445422",
"m  c #465D21",
"M  c #495E20",
"N  c #58473B",
"B  c #54483B",
"V  c #5D523E",
"C  c #466123",
"Z  c #4C6321",
"A  c #476925",
"S  c #4E6821",
"D  c #526C22",
"F  c #467322",
"G  c #447827",
"H  c #4D7B24",
"J  c #547123",
"K  c #587422",
"L  c #547D23",
"P  c #5E7B21",
"I  c #617F21",
"U  c #615144",
"Y  c #645945",
"T  c #6C5B4C",
"R  c #7A6E57",
"E  c #7D7259",
"W  c #81755D",
"Q  c #83785F",
"!  c #847961",
"~  c #068037",
"^  c #068339",
"/  c #078D3D",
"(  c #088E3E",
")  c #1C8F38",
"_  c #07913F",
"`  c #1D943B",
"'  c #1D983C",
"]  c #3B862D",
"[  c #3E8E2E",
"{  c #3E8F30",
"}  c #21973C",
"|  c #22983B",
" . c #5F811D",
".. c #63831E",
"X. c #67881F",
"o. c #698A1F",
"O. c #6D921F",
"+. c #478129",
"@. c #458D2C",
"#. c #5D8122",
"$. c #5D8925",
"%. c #55902C",
"&. c #658521",
"*. c #688624",
"=. c #678921",
"-. c #6A8B22",
";. c #678528",
":. c #698729",
">. c #6D8B2B",
",. c #708F2D",
"<. c #659027",
"1. c #6E9223",
"2. c #6F902C",
"3. c #729525",
"4. c #759B26",
"5. c #789E26",
"6. c #72932C",
"7. c #76992B",
"8. c #799D2D",
"9. c #738F37",
"0. c #749037",
"q. c #779930",
"w. c #7A9D30",
"e. c #7B9B39",
"r. c #7BA226",
"t. c #7EA827",
"y. c #7CA32A",
"u. c #7EA332",
"i. c #078540",
"p. c #078B42",
"a. c #079441",
"s. c #089542",
"d. c #079C45",
"f. c #089A43",
"g. c #089548",
"h. c #089E48",
"j. c #199C41",
"k. c #219E44",
"l. c #08A046",
"z. c #08A449",
"x. c #09AD4D",
"c. c #09B14E",
"v. c #09B552",
"b. c #09B956",
"n. c #09BD5A",
"m. c #0AC25E",
"M. c #0CC661",
"N. c #0FC965",
"B. c #10C965",
"V. c #10CD68",
"C. c #80A72D",
"Z. c #81A929",
"A. c #8AB32D",
"S. c #84AA31",
"D. c #86AA3D",
/* pixels */
"0.>.>.>.>.>.>.>.>.>.>.>.,.>.>.>.>.6.q.>.;.>.>.:.;.;.&.,.y.2.7.>.,.,.:.>.;.:.:.:.,.:.8.6.6.C.-.>.,.9.",
"3.=.&.&.=...........o.-.......&.&.-.v o.4.r..... .......4...-.-.1.*.I *.&.v ..*.*.X.-.o.....*.....-.",
"6.4.o...*.....&.&.&.=.-.....&...*.-.&.1.4.1.&.&...&.=.....&.-.3.-.-.-...*.*...-.-.-...3.3.o.1.-.4.w.",
"u.3.c o.-.o.-.o...&.-.=.....-.-.*.*.-.&. .#.-.-.-.o.&.-...-.5.3.3.5.5.X.X...X.*.1.3.-.3.-.3.3.4.3.8.",
"7.-...*.o.-.-.&.o.=.-.-.=.&.=.&.-.-.=.&.$.{ j.n.n.n.m.' [ $.=.=.3.5.4.*.X.&.....-.*.-.X.-.Z.3.X...,.",
">.&.*.&.&.&.&.&.-.-.-.-.1.4.1.4.5.o.@.' z.x.b.n.n.m.b.b.x.z.} @.*...&.&.&.&.&.&.&.*.-.1.*.4.3.-.-.,.",
"6.=.-.&.&.&.-.....=.&.=.r.4.X.1.-.{ z.c.n.b.b.m.V.V.m.b.n.n.v.z.[ *.*.....&.&.&...1.1.-.*.I 3.3.X.,.",
">.&.&.&.-.-.-...&.&.&.1.4.5.4.1.=.' v.b.b.b.n.m.N.N.m.n.b.b.b.v.' &...*...*.c &.-.-.I *.-.&.5.3.&.,.",
">.&.-.-.-.....c &.-.*.7.r.4.3.[ ) v.n.v.b.n.M.M.m.m.m.M.n.b.v.n.v.` ] X.*.....&.-.-.....&.=.=.=.*.:.",
">...&.-.......c -.3.r.o.1.r.p _ z.v.v.v.b.n.M.b.b.b.b.N.n.b.v.v.v.z._ p 3.3.-.&...-.......-.;.*.-.>.",
">...v &.-.=...c &.&.1.-.O.1.4 _ d.v.m.b.b.b.n.v.v.v.v.n.b.b.b.m.c._ / 4 c o...-.-.-.-...-.-.-.-.*.,.",
">.....&.-.-.&.-.&.v I 1.Z.0 6 / z.n.v.v.b.V.m.b.b.b.b.m.N.n.v.v.m.z./ ~ 0 c c Z.5.-.o.I &.&...&...:.",
":.-.*...&.-.-.=...&.&.-.Z., 8 a.c.v.v.v.b.M.V.n.n.n.n.V.M.b.b.v.v.c.a.8 , c #.5.-.-.-.......o.o.-.>.",
"6.&.....&.-.-.....*.v o.@.3 6 _ x.v.n.b.b.b.M.M.M.M.M.M.b.b.v.n.v.x.a.~ 2 y -.5.&.c ....&...-.-.-.6.",
"8.-.-.......P ..-.&.&.y 4 2 ~ _ h.v.v.b.b.b.b.n.N.N.n.b.b.b.b.v.v.l._ ^ 2 2 t ..2.5.....&...-.-.-.,.",
">...3.-.....c &.&.&.1.5 6 2 ~ / z.v.n.n.b.b.b.b.b.b.b.b.b.b.b.m.c.z./ 6 2 6 5 #.1.t.-.&.&.&.&.&.&.,.",
";.&.-.1.=.c X.=.&.&.p 6 6 4 8 _ x.c.v.v.b.b.b.b.b.n.v.b.b.n.v.v.x.c./ 6 4 6 6 a -.&.;.&.*.&.&.-.=.>.",
">.&.#.1.r.&.&.&.&...p 6 6 2 ~ a.z.x.x.v.n.b.m.c.m.m.v.n.b.n.b.x.x.z._ ~ 2 6 6 u -.*.-.&.&.-.-.&.&.>.",
">.-.=.1.5.1.&.&.&.#.0 7 7 2 ^ / h.c.v.c.c.v.m.c.v.v.c.m.v.c.c.x.c.h._ ~ 4 7 6 0 ;.>.=.&.*.o.*.-.I >.",
">.....-. .&.7.3.3.H 2 6 6 4 6 / z.x.c.v.c.x.x.c.x.x.c.x.x.c.c.v.x.x./ 6 2 6 ~ < L -.-.-.-...-.-.-.>.",
">.......&.&.-.3.4.%.2 ^ 6 2 6 _ a.a.x.v.c.c.x.c.v.c.c.x.x.x.v.x._ d._ ~ 4 6 ~ 2 G &.-.-.1.1.o.&.-.6.",
"9...........&.4.L : 4 8 7 2 ~ a.d.h.d.c.c.x.x.c.c.c.c.x.x.c.c.h.s.f._ ^ 2 7 8 4 < L -.-.y.y.....&.>.",
":.......&...-.O.#.: 4 8 6 2 8 ( d.d._ l.x.d.l.x.l.l.x.l.h.x.h.f.f.d./ 6 4 6 6 4 : #.-.-.-.-.&.o.-.;.",
":.....*.=.=...1.+.; 2 ^ 6 2 7 6 _ a.d.d._ f.f.f.f.f.f.s.f._ s.f.f._ 6 7 2 7 ^ 2 ; G *.>.y.;.&.-...;.",
":.v ..&.-.5.-.-.+ ; 4 6 ^ 4 2 4 ~ _ f.f.f.f.f.f.f.f.d.f.f.f.f.f.s.~ 4 2 4 ^ 6 2 < + -.3.5.-... . .;.",
"&.....&.-.4.3.4.> < 4 7 / ( 7 2 6 ^ f.f./ f.f.s.( ( _ f.f./ s.f.^ 4 4 7 / / 6 4 < > -.-.4.-.....c ;.",
";.c ....*.&.y.r.> O 4 6 ( _ ^ 2 4 6 / ^ ~ / ( ^ ^ ^ ^ / / ^ / ^ 6 4 2 8 a.( 6 4 O > 3.4.1.1.4.O...;.",
";.c v ..-.-.o.&., O 2 ~ ( f.( 6 2 2 7 6 6 6 7 8 ~ ~ 6 6 6 6 6 6 4 2 6 _ s._ 6 2 O > 4.y.&.-.o.<...;.",
"6.-...o.-.5.*.-.> ; 2 6 / f.d.s.6 2 4 4 2 4 4 2 4 2 4 4 2 2 4 4 3 8 f.f.f./ 6 4 < , 6.I 1.5...-...;.",
"6.-.-.o.&.-.&.c > < 4 7 6 _ f.f.f.8 2 2 2 2 2 2 2 2 4 ^ 4 2 2 2 6 d.f.f._ 6 7 2 < + 4.v o.-.o.O...>.",
",.-.-.-.-.3.r.-.r O 2 4 4 ~ _ d.f.d.( 8 8 6 7 8 7 7 6 8 g.8 8 ( f.f.d._ ~ 4 4 2 O r 4.X.*.;.=.&...>.",
"7.-.-.*.-.y.t.3.c : O 3 4 4 ^ _ f.f._ h.f._ ( a.( a._ ~ h.l.f.s.f.f._ ^ 4 4 2 O > #.o.*.&.&.=.&.&.7.",
"6.=.3.-.-.-.-.-.-.L > < 2 4 8 8 / / ~ _ _ _ ^ / ^ ^ / ~ g.z.( ^ / / ^ 8 2 2 O > <.-.&.-.&.&.-.-.o.3.",
"q.7.=.=.-.-.-.-.....L + < 7 4 7 8 6 ^ 6 6 6 ~ ^ ~ ^ ~ ~ 8 g.6 / a.4 4 2 4 2 ; x 4.-.c o.=.-.-.;.*.,.",
"8.4.=.-.4.-.&.&.-.c -.e O < 4 4 4 4 4 4 4 2 4 4 4 4 4 4 2 7 p.z.g.7 2 4 ; O e x o.-.....-.-.-...&.>.",
">.&.1.1.=.=.&.-.-.v *.4.0 O < 2 4 4 4 4 4 4 4 4 4 4 4 4 2 2 p.z.8 s.p.< O 0 O. .-.t.-.......&.-.&.>.",
">.&...o.o.=.&.3.3.c c P H O O < 2 4 4 2 4 4 4 2 4 4 4 7 2 7 g.^ 2 4 z.8 O F -.5.-.7.r.-.....o.&.-.,.",
">.c ..-.-.1.-.&...4.-.-.y.= < O O O < ; ; < < O < < ; ; ; ; ; ; < O i.i.q -.-.y.4.A.3.-.&.c &...*.3.",
">...o.=.-.-...c v 1.=.o.j J % < < O O O O O O O O O O O O O O O O < 8 9 J S ;.;.3.5.....&.&.&.&...>.",
";.......&.&.c c ..I *.c f S K & $ o < < O O O O O O O O O ; ; ; o % $ j.J Z I 3.=...&.&.-.-.v ..o.>.",
"-...&...&...&.....-.-.S M M J D D C * X & b - - - - - - - &   X Z l g u A f S 1.-.-.&.-.3.;...o.-.>.",
":...=.&...&.-.-...&.-.j M f d Z S l l S # N Y T T T T U N j k d Z D j j s Z D t.-.-.-.-.1.&.-.-...>.",
";...=.&...-.-.....*.-.S Z g S j Z J K J # B Y E ! R E Y B Z J f j Z Z S w w P 3.&.-.-.-.-.-.-.-.c ;.",
">...&.=.-.-.-.&.&.-.4.&.f Z S M D j g D Z n V E ! E R V # j j f Z Z g M A q &.&.*...&.1.3.-.*...c &.",
":...&.-.-.-.-.;.*.&.&.&.f Z D Z g Z d S J j n b Y Y b n D f f j Z Z Z j f j &.*.&.=.-...-.-.&...&.>.",
"*...-.-.-.&.-.*...&.....K d j S f j d g h d f Z Z M d Z j f f m d m Z j d z -.&.-.&...o.1.-.&. ...-.",
";...&.-.-.-.......&.-.....v &.3.-...&...c c  .=.4.r.=.=.......=.o.*.*.-.&.;.-.-.&.....1.5.-.&...v ;.",
">.&.-.-.-...................-.3.-...&.....c  ... .-.&.1...&.&.&.-...-.-.&.;.&.&...&...t.r...1.1...,.",
"5.4.-.=.-.-.........v ..&...*.-.....-.&.v ..v ..c c c c c =.&.-.-.=.=...&.&.-.o.&.&...5.t.c -.-...1.",
"D.6.>.>.6.,.>.>.,.>.>.>.>.>.>.>.:.3.w.6.,.*.*.>.:.;.&.>.7.7.>.6.6.6.>.>.:.>.6.,.>.>.w.>.6.7.:.:.S.e."
};
