/* XPM */
static char *result[] = {
/* columns rows colors chars-per-pixel */
"50 50 162 2 ",
"   c #010100",
".  c #090C04",
"X  c #0D0905",
"o  c #1D0303",
"O  c #160B03",
"+  c #0D1105",
"@  c #0F1209",
"#  c #0C1A0E",
"$  c #171F07",
"%  c #10110A",
"&  c #131A0A",
"*  c #0D1D11",
"=  c #141615",
"-  c #181A1A",
";  c #210000",
":  c #250902",
">  c #350000",
",  c #380F0A",
"<  c #3F1919",
"1  c #1B2308",
"2  c #1B201A",
"3  c #2A370E",
"4  c #29370D",
"5  c #20221B",
"6  c #22381E",
"7  c #2B3612",
"8  c #313F16",
"9  c #272824",
"0  c #2E2F2F",
"q  c #213A21",
"w  c gray19",
"e  c #373939",
"r  c #3A3A39",
"t  c #430000",
"y  c #4D0000",
"u  c #550707",
"i  c #540C0C",
"p  c #5D130F",
"a  c #750000",
"s  c #780404",
"d  c #60130E",
"f  c #641111",
"g  c #701111",
"h  c #781212",
"j  c #771914",
"k  c #432218",
"l  c #543623",
"z  c #24421E",
"x  c #37441C",
"c  c #3D572C",
"v  c #475C1B",
"b  c #4D6818",
"n  c #526F18",
"m  c #5D7D1D",
"M  c #607F1E",
"N  c #4A582E",
"B  c #4E5838",
"V  c #445B30",
"C  c #526627",
"Z  c #5E7B20",
"A  c #4D6539",
"S  c #596B3B",
"D  c #597236",
"F  c #617F21",
"G  c #5B5B5B",
"H  c gray46",
"J  c #7B7D7B",
"K  c DimGray",
"L  c #860000",
"P  c #800B0B",
"I  c #990000",
"U  c #990F0F",
"Y  c #960A0A",
"T  c #911616",
"R  c #9C1212",
"E  c #A70000",
"W  c #AB0000",
"Q  c #AC0C0C",
"!  c #B10B0B",
"~  c #A01818",
"^  c #B41213",
"/  c #B61C1C",
"(  c #BA1A1A",
")  c #B92121",
"_  c #BF3536",
"`  c #C51E1E",
"'  c #C81F1F",
"]  c #C42B2C",
"[  c #D42121",
"{  c #DB2222",
"}  c #E32323",
"|  c #EB2525",
" . c #F62727",
".. c #CF5D5F",
"X. c #D1595A",
"o. c #D67374",
"O. c #5F811D",
"+. c #63831E",
"@. c #68871F",
"#. c #66881F",
"$. c #698B1F",
"%. c #6D921F",
"&. c #5D8039",
"*. c #658521",
"=. c #688723",
"-. c #678921",
";. c #6A8B22",
":. c #678528",
">. c #698729",
",. c #6D8B2B",
"<. c #708F2D",
"1. c #6E9123",
"2. c #6F902C",
"3. c #719425",
"4. c #759B26",
"5. c #789E26",
"6. c #72932C",
"7. c #759A2A",
"8. c #799D2A",
"9. c #6B833C",
"0. c #618339",
"q. c #738F37",
"w. c #749037",
"e. c #779930",
"r. c #7A9D30",
"t. c #7B9B39",
"y. c #7BA226",
"u. c #7FA827",
"i. c #7CA329",
"p. c #7EA332",
"a. c #7A9644",
"s. c #80A72D",
"d. c #81AA2A",
"f. c #83AA27",
"g. c #89B42C",
"h. c #90BD2F",
"j. c #85AA37",
"k. c gray53",
"l. c #8B8B8B",
"z. c #969797",
"x. c #A8A8A8",
"c. c #B0B4A9",
"v. c #B9BCB7",
"b. c #B4B4B4",
"n. c #D88383",
"m. c #E88285",
"M. c #E2A2A2",
"N. c #DADED5",
"B. c #F8C8C8",
"V. c #F3DEDE",
"C. c #DFE5D2",
"Z. c #E7ECDA",
"A. c #E9EFDE",
"S. c #EBF1DF",
"D. c #ECEDE3",
"F. c #EDF1E5",
"G. c #EFF2E9",
"H. c #F2F5ED",
"J. c #F5F7F2",
"K. c #F7F9F5",
"L. c #F8F9F7",
"P. c #FEFDFD",
/* pixels */
"w.,.,.,.,.>.,.,.>.,.>.,.6.,.>.,.,.6.8.,.:.>.,.:.>.*.*.,.s.,.7.<.<.<.,.,.:.>.>.>.<.,.8.6.7.8.,.,.,.q.",
"3.-.*.+.-.#.+.+.+.#.;.;.+.+.+.*.*.;.M ;.4.5.#.+.m *.+.+.4.#.-.;.1.*.F *.*.M +.=.=.#.;.=.+.@.@.*.+.;.",
"6.4.$.*.*.#.#.*.=.*.;.@.+.M *.*.=.;.*.1.4.1.*.;.*.#.*.+.M #.;.3.;.;.=.*.=.*.+.;.;.;.+.%.%.;.1.;.4.p.",
"p.3.O.#.;.@.;.*.+.*.-.-.#.+.;.#.*.:.;.*.m *.;.;.;.*.;.-.+.;.4.6.3.5.5.@.=.+.*.;.<.;.;.4.;.3.3.4.1.r.",
"7.;.+.=.@.;.;.*.-.;.-.;.-.-.-.#.;.;.;.+.*.-.;.,.1.1.;.;.#.@.;.-.3.4.4.@.@.*.+.+.;.;.;.*.;.f.3.#.+.<.",
",.*.*.*.*.*.*.*.;.$.;.;.-.4.1.4.5.@.*.*.6.;.;.;.,.3.;.4.3.#.;.;.=.+.=.=.*.*.*.*.*.*.1.;.-.4.3.;.;.,.",
"6.-.;.*.*.=.;.+.+.-.#.-.i.5.#.1.;.#.-.#.1.;.;.;.;.;.;.1.;.=.;.;.+.=.=.*.#.*.*.*.#.;.3.;.:.F 4.3.@.6.",
",.;.*.*.;.;.*.+.*.*.*.1.5.7.3.4.1.;.3.+.1.-.;.;.-.;.3.1.=.+.*.#.=.=.+.=.+.*.m +.;.;.M =.;.*.4.3.*.<.",
">.*.=.;.;.*.+.m *.1.*.7.y.4.4.1.*.-.@.*.;.+.1.;.;.1.6.3.=.M M =.;.;.;.=.@.=.+.=.;.=.+.#.*.-.-.-.=.>.",
",.*.*.;.+.+.+.m ;.1.5.;.1.y.+.1.Z *.-.m M ;.$.%.$.;.;.;.3.;.@.:.*.;.1.:.4.%.;.+.#.;.+.m #.;.*.=.;.,.",
">.+.M *.-.-.+.m *.*.1.$.1.4.1.#.-.*.-.i.$.#.+.$.;.;.;.*.#.3.3.3.3.3.d.8.M @.+.=.;.;.;.+.*.;.;.:.;.,.",
">.+.#.*.;.=.*.;.*.M F 1.f.1.;.1.u.8.5.y.+.m #.m ;.4.y.3.@.4.+.;.i.3.;.4.3.m M f.4.;.#.*.*.*.*.#.*.>.",
">.;.*.*.*.;.;.#.*.*.*.;.f.;.+.4.3.1.1.-.M +.+.+.4.i.4.;.;.;.;.=.*.g.4.*.1.n +.4.$.;.;.M #.+.@.@.;.,.",
"6.*.M +.*.-.;.*.*.*.+.@.y.@.7.i.4.;.1.1.#.#.#.;.6.;.;.;.M *.;.;.;.1.3.*.-.*.;.5.*.m +.#.*.+.;.;.;.<.",
"r.;.@.#.+.m Z +.#.=.*.$.4.1.;.-.4.5.i.1.$.;.@.;.=.;.;.;.;.*.;.3.1.*.=.-.d.5.+.*.1.8.m *.*.+.*.;.;.6.",
",.@.4.;.+.#.m *.*.*.1.i.4.1.;.-.+.1.1.;.;.#.*.;.$.;.;.*.*.;.;.;.-.1.;.=.1.y.;.*.1.u.;.*.*.*.*.*.*.,.",
":.Z ;.1.-.O.+.-.*.*.4.8.*.-.4.;.*.2.;.;.@.@.M +.$.;.*.;.;.;.;.;.;.3.;.3.*.*.1.8.-.*.*.*.;.*.*.;.@.,.",
",.*.+.1.y.*.*.-.*.*.1.;.#.;.;.+.*.1.1.;.3.;.+.+.@.;.;.;.;.;.;.;.1.,.;.;.*.*.*.;.;.:.*.;.*.;.*.;.*.,.",
"<.=.-.1.4.1.*.-.*.*.*.*.;.#.-.*.+.-.2.;.;.;.+.+.#.+.*.;.;.#.#.3.;.;.;.-.*.*.+.*.;.>.;.*.*.=.;.*.O.,.",
",.*.+.-.+.-.4.6.1.#.;.-.+.@.;.#.+.*.;.;.*.*.#.;.*.;.;.:.@.$.*.3.1.*.*.;.*.M *.*.;.;.;.;.=.#.;.;.;.,.",
",.*.O.*.*.*.;.3.7.d.i.-.-.1.;.*.*.+.+.;.1.;.;.;.;.,.;.;.@.$.*.+.1.-.;.;.M M M =.:.*.;.;.;.3.@.#.;.6.",
"2.*.+.+.+.O.*.4.*.i.i.1.5.#.#.;.*.*.m *.1.;.;.;.;.1.1.;.5.1.+.O.@.;.;.#.@.@.M =.:.*.;.;.i.i.+.+.*.,.",
">.*.+.*.*.+.;.$.*.4.5.@.*.;.#.+.-.;.*.+.+.;.1.1.3.3.4.1.1.%.-.#.@.+.+.+.=.;.=.=.;.=.=.=.;.,.+.;.;.>.",
":.+.+.*.*.-.#.1.5.;.*.#.;.;.+.+.;.-.*.*.#.;.;.1.4.8.;.-.-.4.y.;.+.#.*.*.=.;.;.=.=.=.;.1.8.;.*.;.#.:.",
":.+.+.*.;.5.;.;.3.-.-.#.;.3.;.1.6.;.*.;.;.;.;.;.;.4.4.s.1.3.1.O.;.;.$.;.*.;.;.,.*.*.;.3.7.-.-.O.m *.",
"*.m O.*.;.4.3.4.;.;.d.y.1.;.,.3.3.;.;.*.;.=.;.;.:.;.7.d.1.*.%.#.O.$.1.;.*.;.;.3.;.;.;.;.5.1.O.O.m :.",
":.m m +.:.*.y.y.;.+.5.h.5.;.;.2.;.;.;.;.3.#.:.=.;.;.3.y.u.4.4.4.$.$.;.@.;.1.;.@.;.,.3.4.1.1.1.%.O.:.",
":.+.+.*.;.;.;.*.y.3.*.4.1.;.;.;.;.;.;.@.;.@.A # # * * # a.u.;.4.4.1.;.;.,.:.3.:.-.:.7.y.-.;.1.;.*.:.",
"6.@.#.;.@.5.=.;.i.5.-.+.O.-.;.1.;.*.;.-.V 6 f R P s P U < q 9.4.;.;.$.;.;.=.-.;.;.7.3.*.1.y.+.-.*.>.",
"6.=.;.$.#.;.*.M 1.7.-.-.3.4.1.1.1.;.-.A t a ! { [ [ [ } Y L : &.$.1.@.=.#.F 1.4.;.7.7.M *.1.-.1.+.>.",
",.;.;.;.;.3.5.;.1.1.-.1.;.1.4.1.;.#.c > m.B.] E ) ) / / ` } ! + D $.+.M M M ;.6.-.#.4.#.*.*.-.*.+.,.",
"6.1.;.*.;.y.i.4.O.O.-.;.3.4.5.1.*.N t m.P.P.B.] ! / / / / / { Q X D +.M M F ;.3.@.*.#.*.=.*.=.*.*.7.",
"6.-.4.;.;.;.;.;.;.#.4.3.4.3.3.3.3.  I P.P.P.P.o.W / / / / / /  .> z n -.;.#.-.y.4.-.*.-.*.-.;.;.#.6.",
"e.7.-.-.;.;.;.-.+.*.*.=.*.F M ;.S p Q X.P.P.M./ ^ / / / / / / ` R l 3 b 4.y.O.O.y.;.O.-.=.;.;.*.;.,.",
"7.4.-.;.4.;.*.*.*.M :.5.#.=.;.#.  ( [ I ..n.( W ) / / / / / / / | u 1 1.#.4.3.m -.;.+.O.-.=.=.*.#.,.",
"2.*.1.1.-.;.*.;.;.m ;.4.-.;.y.f.@ ( [ / W W ^ ) / ( / / / / / / { p 1 1.O.O.3.m -.u.;.-.+.-.-.-.=.,.",
">.*.+.-.#.;.*.3.3.m m m 1.*.3.4.. i [ [ / [ { [ [ / / / / / / / | j . +.#.#.-.y.;.7.y.;.*.O.#.*.;.,.",
",.O.+.-.;.3.;.+.+.4.=.1.f.7.4.#..   i [ { y > t / [ / / / ' { | / , + #.f.;.;.i.5.g.3.;.*.O.#.*.*.6.",
">.#.;.*.-.;.*.m M 1.-.;.-.4.1.;.      u o = = 2 O ` } [ } ~ g s o   . +.y.1.;.*.3.5.M +.*.*.*.*.#.,.",
">.+.+.+.*.+.m m +.*.-.O.*.1.7.1.8 @ 0 w   H.F.H.# > T h T ;   - e & + 5.y.;.*.7.*.*.*.*.;.;.m +.@.,.",
"=.+.*.+.*.+.*.#.+.*.:.*.*.;.8.1.=.= x.N.  G.L.G.%         X V.L.V.z m 4.1.*.*.1.;.;.*.;.3.*.*.-.$.2.",
">.+.-.*.M *.;.*.#.*.;.;.;.F m ;.3.7 K Z.  .   2 . c.J z.v.J.L.P.9 C -.;.-.-.3.y.;.;.;.;.1.*.;.;.+.,.",
">.+.-.*.#.*.;.#.*.*.;.;.1.#.3.;.1.5.4 G J.L.L.P.F.H.G.D.P.H.P.k v $.;.1.=.-.4.7.*.;.;.;.;.;.;.*.Z :.",
">.+.*.=.;.;.;.*.+.;.4.=.*.;.1.*.1.;.*.4 H L.H.P.G.F.Z.Z.G.x.- v ;.;.=.=.;.-.-.-.*.+.*.1.3.;.=.*.m *.",
",.+.-.;.;.;.;.=.-.*.*.*.*.1.3.1.+.1.m 3.x + H b.x.l.H k.B % C *.;.1.;.;.*.=.=.=.*.-.;.#.;.;.-.O.*.>.",
"=.O.-.;.;.;.:.*.*.F +.#.*.O.;.4.-.;.M @.;.+.B . . . . % D ;.:.*.#.=.;.;.+.=.;.=.;.*.+.#.1.=.*.+.*.>.",
"*.+.*.;.;.*.#.+.+.*.;.#.+.+.*.1.;.+.#.m m m O.-.4.y.-.#.O.+.*.-.;.*.;.;.*.=.=.;.*.+.O.1.y.;.*.O.+.*.",
",.*.;.;.;.+.+.O.+.+.+.+.+.*.-.3.;.+.*.#.+.m O.+.O.;.#.%.+.+.*.*.;.#.=.;.*.*.*.*.+.*.*.u.5.O.3.1.+.<.",
"y.7.;.*.;.;.+.+.#.+.m *.*.#.:.;.#.+.=.*.M +.M @.m m M m m -.;.-.@.;.*.+.*.*.;.@.*.*.#.5.i.m ;.1.#.;.",
"j.6.,.<.w.2.,.>.,.<.,.>.;.,.,.,.>.6.8.6.<.:.;.:.>.*.*.,.7.6.,.6.6.<.6.>.:.,.6.6.,.,.7.,.6.e.>.>.s.t."
};
