/* XPM */
static char *result[] = {
/* columns rows colors chars-per-pixel */
"50 50 246 2 ",
"   c #181C34",
".  c #081C34",
"X  c #1D2A24",
"o  c #1B283C",
"O  c #2B3C34",
"+  c #222B2E",
"@  c #7B1632",
"#  c #721A2F",
"$  c #4B3D3B",
"%  c #6B2B3E",
"&  c #7D2A3B",
"*  c #752739",
"=  c #6F3233",
"-  c #374836",
";  c #374D35",
":  c #607F1D",
">  c #4B433B",
",  c #49593B",
"<  c #4B512C",
"1  c #516930",
"2  c #607F1F",
"3  c #1B2843",
"4  c #182B46",
"5  c #18324F",
"6  c #262A47",
"7  c #352E48",
"8  c #392C47",
"9  c #27354B",
"0  c #3A3B54",
"q  c #323A57",
"w  c #2C3A51",
"e  c #2C3C6B",
"r  c #503348",
"t  c #6B2D41",
"y  c #6C3445",
"u  c #1B425A",
"i  c #364645",
"p  c #394847",
"a  c #254057",
"s  c #284159",
"d  c #314052",
"f  c #23417D",
"g  c #38436D",
"h  c #51514D",
"j  c #68434B",
"k  c #7C4449",
"l  c #485179",
"z  c #575D7B",
"x  c #4B4E6B",
"c  c #5E697D",
"v  c #796D7B",
"b  c #6B5F73",
"n  c #960B19",
"m  c #B70307",
"M  c #B1071A",
"N  c #8F1A2E",
"B  c #AB0621",
"V  c #A7182A",
"C  c #B71B28",
"Z  c #B91826",
"A  c #B50920",
"S  c #872838",
"D  c #932333",
"F  c #9C2332",
"G  c #91323C",
"H  c #A2202F",
"J  c #B5202C",
"K  c #BE282F",
"L  c #BD2025",
"P  c #A32532",
"I  c #B92932",
"U  c #B9363A",
"Y  c #A1393F",
"T  c #C70604",
"R  c #D9131D",
"E  c #CA0B16",
"W  c #CF2615",
"Q  c #CA1622",
"!  c #C01925",
"~  c #C61925",
"^  c #D71924",
"/  c #C22B2F",
"(  c #C82629",
")  c #C63330",
"_  c #CA3933",
"`  c #C5393A",
"'  c #D93B37",
"]  c #D3302A",
"[  c #E23A35",
"{  c #E8342A",
"}  c #E10F1A",
"|  c #B3453C",
" . c #8B7434",
".. c #CE4236",
"X. c #C9443D",
"o. c #D44C3A",
"O. c #D54737",
"+. c #DB523A",
"@. c #DC5C3F",
"#. c #D7523B",
"$. c #D5442E",
"%. c #E5593B",
"&. c #E84D36",
"*. c #E6623F",
"=. c #ED673B",
"-. c #F7673D",
";. c #903B43",
":. c #B9374E",
">. c #C83C4F",
",. c #B65248",
"<. c #8E734E",
"1. c #B36950",
"2. c #B9536A",
"3. c #83757C",
"4. c #8F5B57",
"5. c #C55A41",
"6. c #CE4949",
"7. c #D66E4A",
"8. c #E56541",
"9. c #EA6942",
"0. c #EA6740",
"q. c #F56C41",
"w. c #EF7345",
"e. c #F17E4B",
"r. c #F97744",
"t. c #E06D5B",
"y. c #CD6968",
"u. c #63831E",
"i. c #698A1F",
"p. c #658522",
"a. c #678921",
"s. c #6A8B22",
"d. c #668529",
"f. c #698729",
"g. c #6D8B2B",
"h. c #688624",
"j. c #708D2D",
"k. c #6E9124",
"l. c #72922D",
"z. c #759928",
"x. c #778733",
"c. c #789933",
"v. c #7DA32C",
"b. c #779247",
"n. c #83A934",
"m. c #D89058",
"M. c #F5874F",
"N. c #F9874B",
"B. c #FF9B56",
"V. c #FF9550",
"C. c #F8924F",
"Z. c #FFA75B",
"A. c #FFA85B",
"S. c #FFA456",
"D. c #FFB75C",
"F. c #FFB560",
"G. c #FFBF62",
"H. c #E29566",
"J. c #FFC264",
"K. c #FFD66A",
"L. c #92864C",
"P. c #193E81",
"I. c #3F60A6",
"U. c #2760BC",
"Y. c #2453A4",
"T. c #545B86",
"R. c #5D6389",
"E. c #5E6F90",
"W. c #676C8B",
"Q. c #666D96",
"!. c #6D7092",
"~. c #4D68AB",
"^. c #6B75A7",
"/. c #387BE3",
"(. c #1D62CA",
"). c #417DE0",
"_. c #4770C1",
"`. c #867995",
"'. c #B67593",
"]. c #D0758B",
"[. c #7989BB",
"{. c #7E82AA",
"}. c #3B85F4",
"|. c #3E90FF",
" X c #5581D6",
".X c #6C83C8",
"XX c #7689CC",
"oX c #4887EF",
"OX c #7F9DEE",
"+X c #B2A19F",
"@X c #8E87A8",
"#X c #968BA9",
"$X c #9391B6",
"%X c #B58DAB",
"&X c #A999A0",
"*X c #CE8991",
"=X c #E28E93",
"-X c #F8B19C",
";X c #C89BAD",
":X c #D6B0B1",
">X c #EDA9A9",
",X c #FFCBB0",
"<X c #808ECA",
"1X c #8897D7",
"2X c #8C9ACC",
"3X c #8EA1DF",
"4X c #8FA1D4",
"5X c #98A3D7",
"6X c #BAB9D7",
"7X c #ACABD2",
"8X c #8FA2E1",
"9X c #9CA9E4",
"0X c #9CB2EB",
"qX c #A7AFE4",
"wX c #AAB7E7",
"eX c #B2B7E6",
"rX c #B6BBEA",
"tX c #A9B8F5",
"yX c #889EE8",
"uX c #D4B3C9",
"iX c #CBB6E0",
"pX c #BBC7EA",
"aX c #B9C8FB",
"sX c #B3D6FF",
"dX c #B0F5FF",
"fX c #D1C9D1",
"gX c #EAD1D9",
"hX c #C1C5EC",
"jX c #C5CBFB",
"kX c #CCD3FE",
"lX c #CAD9FE",
"zX c #D5D7FF",
"xX c #D5DCFE",
"cX c #D9DDFC",
"vX c #D5D4E8",
"bX c #C8EBFF",
"nX c #CAFDFF",
"mX c #D7E2FD",
"MX c #EAE7E7",
"NX c #E4E7FC",
"BX c #E8F4FF",
"VX c #F2F6FE",
"CX c #FFFFFF",
"ZX c #F4FEFF",
"AX c #FAF7E7",
"SX c #EEDCE5",
/* pixels */
"x.g.g.l.g.f.g.g.g.g.d.g.l.g.f.g.g.l.c.g.d.d.g.g.f.d.2 j.n.j.z.g.g.l.f.f.d.f.f.g.g.g.c.z.z.v.s.f.g.x.",
"k.s.a.u.p.u.u.u.u.a.a.i.u.u.u.u.a.a.u.s.z.b.; , h , , , 1 h.s.s.k.i.u.p.p.u.: s.h.u.s.s.u.u.i.p.p.s.",
"l.z.s.u.a.p.u.a.d.u.a.a.u.u.a.p.a.s.2 h h 1.X.7.m.m.m.X.,.h h d.i.i.s.p.a.p.u.s.s.s.u.k.k.i.k.k.z.v.",
"v.z.u.u.s.a.s.a.a.a.a.a.u.a.a.a.p.1 j #.=.r.%.V.S.S.D.&.q.r.%.;.h z.v.a.p.p.a.s.k.k.k.k.i.k.z.z.k.v.",
"z.s.: i.i.s.s.p.a.a.a.a.a.d.g.1 , 1.&.$.-.r.o.M.S.B.A.o.9.r.%.{ %.h 1 a.i.i.u.u.s.s.s.u.s.v.z.u.p.j.",
"g.p.h.u.p.p.p.p.a.a.k.s.s.z.d.r ,.-._ O.9.e.o.M.B.B.A.o.8.w.%.U -.8.j 1 p.p.p.p.p.h.g.s.s.z.z.i.s.j.",
"l.h.h.i.u.i.a.u.a.a.a.g.v.g.k / %.r.) ..9.e.o.M.S.B.A.o.*.w.@.) *.-.] Y , i.u.p.u.k.k.h.s.p.k.z.p.l.",
"g.s.i.u.i.u.L.< , , , , 1 y [ ( $.N._ O.9.e.o.M.B.B.A.o.8.w.%.) 8.8.( [ G , , , , , <  .s.p.z.k.s.g.",
"f.h.s.h.i.x.8.m.m.| #.m.,.A ' I o.w._ O.8.e.o.M.B.B.Z.o.8.w.@.) 0.*./ ` ( 7.m.Y 7.m.| ) <.u.a.i.s.f.",
"g.u.u.s.s.5.N.S.D.%.=.K.-.B ` I O.N.) ..9.M.o.M.B.B.Z.o.8.w.@.) *.*./ ` K V.D.&.N.D.&.+.$.L.a.i.p.g.",
"f.: u.x.I N.w.M.D.#.7.J.@.B ` I O.N._ O.9.e.o.M.B.B.Z.o.8.w.@.) 8.*.K ` K M.Z...e.S...#.=.L <.u.p.l.",
"f.u.x.7._ o.*.M.D.#.@.J.@.B X.K #.-._ ..9.e.o.M.B.B.Z.o.8.w.%.) 8.*./ U K M.Z...M.S...#.w.W ( L.s.f.",
"g. .m.V.o...8.M.D.#.#.J.8.B X.K +.w._ O.0.N.&.B.D.A.D.&.q.w.%.) 8.*./ ` K M.A...e.A...o.9.` %.8. .j.",
"k.= =.V./ o.=.M.F.#.8.J.5.B X.I $.N.] O.9.1.y 4.<.4.<.j 4.w.*.] =.*.K ` K M.A...e.S...#.9.) %.-.* j.",
"z.; | -.) $.=.M.F.#.8.J.%.B ` I &.r.| % j t N @ @ @ @ N * y y G 9.-.K ` K M.A...e.A...+.9.) %.q.O g.",
"g.; 1.-.) +.*.M.F.#.5.J.8.B ` ( &.4.r D V C Q Q Q A Q Q Z V N % j *.{ U K C.A...e.S...+.9.) %.q.j g.",
"d.- #.r.) o.8.M.F.+.8.J.@.M &.;.j S E L ! C C C C C Z C C Z ! Q V r ;.` ( M.A...M.Z._ #.9.) %.q.> g.",
"f.; 5.q.) o.8.M.F.+.5.J.@.A U r * } R Q Q ~ Q Q Q Q ~ ~ Q Q Q Q } V 0 ;.] N.A...e.Z...+.9.) %.q.> g.",
"g.; 5.r.) +.8.V.K.8.8.K.0.@ q % S S & & S & t S & & & & & & & & S D S 7 y S.G.o.C.J...+.9.) %.q.> f.",
"j.- 5.r.) &.8.o.5./ _ 7.] @ % & * t t = & y @ * # # # # = % & * t t t % t 6.@./ o.@./ o.q.) %.q.h j.",
"j.- 5.r.) ' 6.Z M A V B V Q Q Q Q Q R H G T T >.uXuX].E E V D R Q Q Q R ~ B B Z B B C U @._ %.q.$ g.",
"l.- #.r.[ ] 6.J Z Z Z Z C C Z Z C ! V y n ~ 7XbXnXnXbXpX2.T % S Z C C C Z C Z C C Z C ` ' ] 0.q.$ g.",
"g.; 5.-.;.y ' / Z C C C C C C C C R y # R iXnX6X2.6.%XnXlX,.m r C C C C C C C C C Z Z [ ;.t 8.q.> f.",
"d.; 5.&.;.s y ] E Q Q Q Q Q Q ~ R P % m '.nX7XW y.%XW '.nXiXM S S R Q Q Q Q Q Q ~ Q ^ Y w y ` %.> h.",
"f.- I ' O.:.w % H D D D D S D D H r * ^ %XuX>.y.nXnX:X) *XfX6.n r D D D D S D D G D S w ;.[ ' ' $ d.",
"d.- # ] X.[ | d u a a a a w a w a u & Q ( T L sXaXiXdX2.m L ! H w w s s a a a a w 5 u ;.[ X.' P + d.",
"d.- 4 % [ X.O.I N D D D D D D D H r % ^ %X%X` y.sXsX;XL '.%X>.n r P D D D D D D D D F ' 6.[ P o 9 h.",
"d.- e 4 @ { 6.( Q Q Q Q ~ ~ Q Q R H % m '.dX7X] 2.'.W *XdX6XT * S R Q Q Q Q Q Q Q ~ Q X.[ P   g 0 p.",
"l.; 4XR.. * ' ( Z ~ ~ Z ! ! ! Z ~ R * N Q 7XsX7X2.2.%XsXsX:.M r ! ~ ! ! ! ! ! Z Z ! ! [ P   e 5Xx f.",
"l., vXxXg . t ( J J C J J J J J J Z F y m Q ;XlXbXdXlXiX6.T y S C J J J J J J C C J ( P   6 5XCXh f.",
"j.- W.MXjXg   r 7 7 7 7 7 7 7 7 7 7 8 9 r n n 4.$XXX`.N n # 9 8 8 7 7 7 7 7 7 7 7 7 7 o 6 5XZX&Xi g.",
"l.- ^.+XSXhXg . 3 3 3 3 3 o 3 3 3 4 4 6 3 4 3           3 4 6 6 3 3 3 3 3 3 3 3 3 3   6 4XnX:X$Xs z.",
"l.O 4XMX&XvXaXd 7 0 0 0 0 0 0 0 0 0 0 r q q 0 q 0 0 0 0 q 0 0 r q r d d 0 0 0 0 0 7 7 XXBX&XgXbX5 l.",
"c.- [.CXAX+X7XOX3X8X1X8X8X8X8X8X4X2X3X3X8X8X3X3X3X3X3X1X3X3X8X8XXXXXXXXXXXXXXX[.XXXXyXqX+XfXCXpX9 l.",
"l.- [.CXCXMX`.!.#X@X@X@X`.#X#X#X#X#X#X#X#X#X#X#X&X#X@X@X@X@X`.{.zXBXVXVXVXVXVXZXVXmX^.z fXCXCXpX9 g.",
"g.- [.CXCXCXvX!.#X@X@X#X$Xh Y.~.I.I.~.I.~.I.~.I.e !.$X@X@X$X@Xw x 3.3.3.3.3.3.3.3.b   $XCXCXCXpX9 g.",
"f.- [.CXCXCXpX8XjXaXrXjXzXT.(.}.}.}.}.}.}.}.}.|.f $XzXaXaXjXkXfXc W.W.z x x z E.E.c 7XaXCXCXCXpX9 g.",
"d.O [.CXCXCXpX1XhXrXrXeXhXl (.).).).).).).oX/.oXf @XjXeXeXqXeXCX,X=X-XAXCXCXAX-X=X-XAXwXCXCXCXpX9 l.",
"d.O [.CXCXCXpX1XrXeXeXeXhXl U.oX).).).).).).).oXf @XjXeXeXeXaXSX] H.( H.CXCX-XT 7.,XMXwXCXCXCXpX5 g.",
"a.- [.BXCXCXpX1XrXeXeXeXhXl U.oX).).).).).)./.oXf @XjXwXeXeXaXfXW =X` *XgXgX].m AXZXlX7XCXCXZXwXd s.",
"p.; 7XwXMXCXpX1XhXeXeXeXhXl U.).).).).).).).).oXP.@XjXeXeXeXaX7Xm :.;XmXJ :.:XT X.=X6X0XZXCXwXpXx l.",
"h.- 6XlX3XZXvX1XrXeXeXeXhXl U.).).).).).).).oXoXf @XjXeXeX6XrXhX'.uXbXvX%X'.gX;X'.H.6XwXCXwXqXmXh f.",
"d.- qXBXpXwX5XqXzXzXkXkXcXT.(.)./././././././.oXf 7XmXkXkXkXjXBXvX].uXuXuX:XiXgX;XuXbX7XwX7XmXcXx s.",
"g.< !.lXmXhXOXQ.T.R.R.R.R.0 _.oX X X X X X X XoXP.r Q.R.R.R.R.W.!.!.W.W.W.!.W.W.W.W.Q.XXpXcXcX2X; h.",
"a.u.1 E.zXNXwXQ.W.Q.Q.Q.!.0 ^.1X<X<X<X<X<X<XXX8Xl x ^.!.Q.Q.Q.Q.!.Q.Q.Q.Q.Q.Q.Q.Q.Q.E.4XmXcX5X; u.g.",
"f.u.u.1 ^.mX9XwXNXzXzXzXNXT.<XtXqXqXqXqXqXqXqXrXT.2XNXcXcXcXxXxXzXzXxXzXzXxXxXzXzXxXaX3XcX5X; : u.f.",
"h.u.u.i.1 {.tXyXqX9X0X0X9Xx iXNXxXxXxXxXcXcXzXVXW.^.tXqX9X9X9X9X9X9X9X9X9X9X9X9X9X9X8X0X7X< u.u.u.h.",
"f.u.i.k.a.< Q.OX.X^.XX^.XXg x T.z z z c z T.z W.w ~.XX.X.X.X.X.X.X.X.X.X.X.X.X.X.X.XXX[.< u.k.i.u.g.",
"v.k.s.s.s.s.< p p p i p p - X X X X + X X X X X + i i i i i p p p p p i i p p i i i p , v.u.s.k.u.k.",
"n.l.g.l.l.j.g.g.g.l.g.f.g.g.g.d.g.l.v.l.l.f.s.d.d.d.d.g.z.z.g.l.l.l.j.g.h.g.l.l.j.g.c.g.l.z.d.s.n.c."
};
