/* XPM */
static char *result[] = {
/* columns rows colors chars-per-pixel */
"50 50 238 2 ",
"   c #030301",
".  c #0C0300",
"X  c #080A04",
"o  c #130201",
"O  c #1B0201",
"+  c #160B04",
"@  c #071204",
"#  c #171805",
"$  c #040815",
"%  c #120F11",
"&  c #230D0C",
"*  c #162207",
"=  c #1A2312",
"-  c #372D10",
";  c #362C2C",
":  c #363A2E",
">  c #393439",
",  c #641E1E",
"<  c #4C2A0A",
"1  c #552A09",
"2  c #4A3307",
"3  c #533805",
"4  c #4B2919",
"5  c #552B18",
"6  c #493418",
"7  c #58371B",
"8  c #622D05",
"9  c #65320C",
"0  c #652E1A",
"q  c #471C26",
"w  c #4A2929",
"e  c #562A29",
"r  c #542E2D",
"t  c #493728",
"y  c #52342B",
"u  c #482A35",
"i  c #532B36",
"p  c #493836",
"a  c #563437",
"s  c #6F3032",
"d  c #3C4537",
"f  c #385130",
"g  c #5A4306",
"h  c #50451C",
"j  c #7B4F0C",
"k  c #795A15",
"l  c #5E7E1C",
"z  c #607F1E",
"x  c #49482B",
"c  c #564A2A",
"v  c #4B552D",
"b  c #58572A",
"n  c #464738",
"m  c #564A36",
"M  c #475536",
"N  c #545935",
"B  c #644829",
"V  c #784B29",
"C  c #69562F",
"Z  c #794C39",
"A  c #795838",
"S  c #5E7C20",
"D  c #596535",
"F  c #617F21",
"G  c #6B6E36",
"H  c #343442",
"J  c #3B3948",
"K  c #4A3A43",
"L  c #50344B",
"P  c #693A46",
"I  c #70394B",
"U  c #3E494B",
"Y  c #3C6263",
"T  c #434649",
"R  c #534754",
"E  c #69434A",
"W  c #794C49",
"Q  c #75504D",
"!  c #6F6648",
"~  c #586572",
"^  c #61606C",
"/  c #8E3236",
"(  c #823837",
")  c #864C12",
"_  c #8E5311",
"`  c #915418",
"'  c #816400",
"]  c #874928",
"[  c #84532B",
"{  c #8C5233",
"}  c #A94A3B",
"|  c #B84B3C",
" . c #AD533C",
".. c #B2513B",
"X. c #80643D",
"o. c #C7473A",
"O. c #873D47",
"+. c #A93A47",
"@. c #814549",
"#. c #994544",
"$. c #855644",
"%. c #99574A",
"&. c #884D59",
"*. c #8D5857",
"=. c #9D5254",
"-. c #965759",
";. c #A84A48",
":. c #B34E44",
">. c #B44D4C",
",. c #B94A48",
"<. c #A95447",
"1. c #B25244",
"2. c #B4554B",
"3. c #A84B53",
"4. c #B44B53",
"5. c #B94852",
"6. c #A85858",
"7. c #B65756",
"8. c #8A6458",
"9. c #926252",
"0. c #8E5960",
"q. c #975A62",
"w. c #A65E63",
"e. c #97636A",
"r. c #A36067",
"t. c #C9554A",
"y. c #D15450",
"u. c #EB5C54",
"i. c #DD6A5B",
"p. c #DE7255",
"a. c #E56A58",
"s. c #EC6E5D",
"d. c #F26B5D",
"f. c #F56C5C",
"g. c #E77356",
"h. c #E4735B",
"j. c #EA725C",
"k. c #DC6B67",
"l. c #CA786C",
"z. c #DE7464",
"x. c #DB736D",
"c. c #D7796C",
"v. c #CA7775",
"b. c #DB7873",
"n. c #EB6E63",
"m. c #E86969",
"M. c #F56965",
"N. c #E47264",
"B. c #EA7263",
"V. c #E67469",
"C. c #F27568",
"Z. c #E57475",
"A. c #F37375",
"S. c #5F801B",
"D. c #63831E",
"F. c #66881F",
"G. c #698A1F",
"H. c #658521",
"J. c #688623",
"K. c #678921",
"L. c #6A8B22",
"P. c #678629",
"I. c #6C8B2A",
"U. c #708F26",
"Y. c #6E9223",
"T. c #719525",
"R. c #759B25",
"E. c #799E26",
"W. c #72942A",
"Q. c #769A29",
"!. c #799D2B",
"~. c #789834",
"^. c #7AA226",
"/. c #7FA827",
"(. c #7CA32A",
"). c #7EA431",
"_. c #BC9C00",
"`. c #BB891A",
"'. c #B79817",
"]. c #BFA000",
"[. c #B69334",
"{. c #82AA2C",
"}. c #87AE32",
"|. c #C69906",
" X c #C7A30B",
".X c #CA9126",
"XX c #C59638",
"oX c #C2A326",
"OX c #969750",
"+X c #AE964D",
"@X c #8BA548",
"#X c #AAA04B",
"$X c #B89373",
"%X c #CE9643",
"&X c #C69D77",
"*X c #D39475",
"=X c #D9A366",
"-X c #CCA774",
";X c #D5A677",
":X c #555E85",
">X c #446588",
",X c #5B6589",
"<X c #938591",
"1X c #B5988A",
"2X c #AA97A5",
"3X c #B2A8AC",
"4X c #B5ABB7",
"5X c #BAB6BD",
"6X c #C9998A",
"7X c #DB9A8D",
"8X c #CC9796",
"9X c #D49997",
"0X c #E08084",
"qX c #CCA389",
"wX c #D7A784",
"eX c #D9A898",
"rX c #E3A799",
"tX c #CFADAD",
"yX c #CAAAB7",
"uX c #F7BEB1",
"iX c #E9CAB5",
"pX c #FBC9BA",
"aX c #EDD4B6",
"sX c #F8D6B7",
"dX c #B4B2C0",
"fX c #C3B8C9",
"gX c #D2BBCB",
"hX c #DDD0C2",
"jX c #FBCDC5",
"kX c #EBD7C9",
"lX c #FCD8C9",
"zX c #FBDCD7",
"xX c #E5DBEB",
"cX c #FCDEE6",
"vX c #FCE4E4",
"bX c #ECE7FB",
"nX c #F3ECF6",
"mX c #F8E9F9",
/* pixels */
"H.D.D.D.R.G.G.T.H.H.D.D.z z F.H.H.J.K.Y.K.^.G.l S.S.D.F.D.l D.T.L.H.F.D.D.K.F.D.H.D.D.H.D.D.H.K.D.H.",
"K.H.F.F.F.D.G.G.F.H.J.z z D.J.F H.L.L.L.H.T.D.D.D.D.H.F.R.R.G.z L.J.H.D.D.H.G.G.H.D.z D.F.H.D.K.K.T.",
"Q.R.L.Y.G.Y.Y.F.L.I.L.D.J.J.D.J.G.D N v x v x M v v x v v v F I.L.J.H.H.D.D.F.K.H.H.J.F.H.J.D.K.R.L.",
"R.T.E.T.T.Y.T.Y.U.U.J.H.F.F.L.(.(.c y y y r r r w r a w y t x I.L.H.K.K.D.J.F.J.H.H.G.G.G.L.H.D.T.R.",
"J.F.H.T./.L.F.G.K.L.F.H.L.b c b c $Xv.x.x.x.c.l.l.x.x.c.*X%.9.x N I.K.L.K.K.K.K.J.H.J.J.L.G.H.D.G.T.",
"F.L.K.T.R.K.L.L.H.D.H.H.U.m r e , x.z.n.M.d.j.N.N.M.n.n.i...%.e y }.!.Y.E.L.L.L.L.K.D.H.H.J.H.J.F.F.",
"K.F.R.T.F J.L.T.U.F.F v m &.&.v.l.l.h.n.d.d.n.N.z.h.a.a.C.k.b.q.8.c b H.E.^.L.H.K.F.D.J.J.J.H.K.H.L.",
"J.H.Y.E.H.J.J.H.L.L.J.c r r.w.v.l.z.h.s.d.d.s.N.z.B.h.j.B.k.z.<.%.y R R.Q.R.Y.H.K.F.D.F.K.L.H.J.K.F.",
"D.K.K.K.K.H.J.D.K.K.L.y i v.v.x.c.z.h.j.s.d.n.V.h.p.h.h.C.Z.A.n.v.i p !.^.^.Q.H.T.H.l z H.L.L.K.K.D.",
"H.J.J.H.K.J.D.D.K.J.I.a , 0XZ.m.h.h.g.j.s.n.n.n.N.p.h.h.V.m.m.d.Z.i T I.!.Y.L.^.W.L.l D.l H.L.D.H.D.",
"K.H.H.I.K.K.D.K.L.M p *.6.k.m.a.j.h.h.g.j.s.n.n.B.g.h.B.V.V.m.M.Z.gX2XM N W.L.Y.D.H.l H.J.K.H.D.D.D.",
"D.H.F.H.H.H.D.L.L.N p q.3.A.M.f.a.g.g.h.j.s.n.N.B.a.g.h.N.V.k.Z.v.tX5XK n }.Y.S.l H.L.H.L.K.D.F.D.D.",
"H.K.G.K.F.D.l L.Y.M u q.;.A.d.f.f.g.g.h.N.n.m.m.n.j.j.C.a.V.c.jXvX-.e.^ ~ d M K.H.H.H.K.L.H.H.H.K.H.",
"K.K.L.L.D.H.F.D.l n u w.4.m.u.f.g.g.h.h.z.m.V.n.n.s.a.a.a.p.l.vXvX*.0.R ~ H d S.J.H.H.L.K.D.H.S H.K.",
"L.L.L.H.D.F.D.H.^.M u w.;.y.y.f.C.h.N.z.V.V.V.N.N.C.B.C.j...%.vXvX-.8.mXbXbXxXd M H.H.l D.D.H.K.K.T.",
"K.J.J.H.H.J.F L./.m w =.;.| o.u.h.z.z.x.x.k.V.z.N.k.i.h.h. .6.zXcX8.8.nXbXbXbXT n H.H.l H.D.L.R.G.F.",
"H.K.L.H.H.L.H.K.F m w w.2.| | t.| :.:.,.>.,.,.:.| y...t...} #.w.e.yX4XmXbXxXxXJ n L.L.S.l L.Y.L.l D.",
"H.H.H.K.L.H.K.P.J.n e =.3.| | | } :.2.4.5.,.1..... .} 1.<.2.7.4.3.yXyXmXmXmXbXJ d P.K.H.H.^.Y.S.H.F.",
"H.S.L.J.J.H.K.L.I.m e -.%.:.1.1.2.<.4.4.5.>.:. . .<.<.2.4.5.5.,.5.I L bXcX4XdXT n H.P.D.Y.E.Y.K.K.J.",
"J.L.L.K.K.K.L.I.L.t a -.-.2.<.;.<.<.3.4.5.>.1. . .<.<.%.7.5.5.y.3.I L mXbXfX3X> M Y.W.Q.H.F K.H.D.H.",
"L.L.K.K.Y.I.L.L.L.x u a s w.;.7.>.:.,.7.,.4.;.<.1.>.7.3.3.7.3./ s yXfXdXdXL n )./.^.T.L.D.H.S.S.F.H.",
"H.D.D.D.(.(.L.L.J.c y w q -.w.=.6.6.6.3.=.w.6.=.<.3.=.*.8.-.q.O.P gX2XfX3Xn m /.(.H.R.K.S.H.H.P.H.J.",
"D.G.F.D.L.L.K.L.W.h 5 $.W i i w i q ; H K u u u a i w y u w u i K ; R ; K P.I.E.W.H.L.L.D.D.H.S.H.D.",
"l F.K.H.L.(.U.L.I.h B V A w w 4 y E K > K q u i u y w p w p L > L K u L n L.H.H.L.^.Y.F.K.K.K.D.D.l ",
"l l D.D.L.R.Y.L.J.I.@X7 < [ %.[ [ Z V [ [ 5 5 $.Z 4 w E E 2X<X$   E P P R Q.F.K.K.T.L.J.E.L.F.D.l l ",
"l l F.D.L.R.L.Y.J.W.~.x 6 A j [ [ [ [ ` ) 9 1 { { y e O.I 2X2X  $ E Q Q ! W.(./.K.G.R.R.R.L.H.D.D.l ",
"l S.G.T.Y.Y.Q.Q.L.L.~.+ + 6 6 ! Z A C 1 7 &X&XeX6X1 0 7X9XcXxX  o 8X8XB B ).}.^.D.L.E.(.H.J.D.z l l ",
"l D.G.Y.L.H.E.Q.P.H.P.# . 6 6 Q Q V [ 5 < wX&XqXqX9 1 7X9XcXcX. . 8XrXZ C Q.^.F.T.(.J.L.L.J.D.D.l D.",
"S.D.L.D.^.Y.H.Y.R.L.L.L.L.c e ] { ` ] 9 8 ;XwX6XqX-X=XsXiXkXkXhXkXiXpX&XOXI.F.J.R.(.J.G.E.L.F.F.K.G.",
"D.F.Y.K.L.F.D.Q.!.L.W.U.J.b B V ` %.] 9 8 ;X;XwX-X;X+XsXsXaXkXkXiXjXsX$XOXT.H.K.R.T.z H.L.F.J.L.K.G.",
"K.D.H.J.H.J.K.R.L.J.U.L.z F H.. o . O Z V 7 9 =X=X=X;X;X&XpXjXjXlXB G @X~.Y.T.K.T.L.L.(.T.K.L.L.K.J.",
"Y.H.H.L.H.H.H.K.D.L.T.U.F F H.+ X   + A W 4 5 =X=X=XwX;XrXuXuXpXpXC b ).R.W.K.G.S.z T././.L.K.L.T.L.",
"G.K.L.L.J.H.J.H.K.R.R.L.F.Y.~.- 2 #XOXx ; 6 1 3 1 eX7Xs ( ( #.O.Z {.~.U.T.Q.T.Q.D.K.L.L.L.F.K.T.F.G.",
"F.K.H.L.L.L.F.z L.R.S.F.^.(.).g g '.'.2 6 < 1 3 3 6XrXZ @.( s ( ! ~.J.z z H.H.H.H.F.F.L.L.T.K.K.R.Y.",
"K.H.D.K.L.J.D.D.L.G.l R.R.b 3 '._. X X`.%X_ ` XX[.tXfX4XyXP Q @XQ.z z U.J.K.E.L.l J.H.H.L.E.L.L.R.R.",
"H.H.K.K.F.D.D.L.{.G.l T.F.x 3 oX|.|.|.|..X_ ) %X+X3X5XyXyXP E ~.!.T.{.{.L.L.R.L.S J.L.H.K.L.Y.L.D.F.",
"K.K.J.G.D.D.L.(.R.L.E.K.K.& + k ' ].].'.XXO o h h f n   . &.&.a N T.Q.Y.H.Y.S l S T.T.J.L.K.K.F.D.D.",
"K.K.D.D.l H.L.Y.}.E.(.L.W.+ & k j |.|.[.+XO X d : 6 x . . &.&.p ! F K.R.E.{.L.K.R.S.H.J.T.L.K.D.l F.",
"F.F.D.H.H.H.D.D.^.T.L.L.W.+ O XX.X_ _ [ V o   H U kXaXhXkXo + : f W.L.Y.Y.G.Y.K.Y.l l H.K.H.H.G.D.F.",
"F.J.D.z J.L.H.H.D.K.T.H.T.+ O [.XX) ` ] $.o   U > jXuXlXkX. . d M L.U.Q.T.F.S.H.H.H.l l F.H.D.F.D.l ",
"K.K.K.H.H.W.L.H.K.L.Y.H.P.# o X.k +X%XO O p T ; p 9XrX6X6X.   : N L.Y.E.L.J.H.L.H.D.H.H.D.D.F.H.D.D.",
"F.D.L.L.K.Y.L.K.Y.K./.Y.H.# X ! c #X#Xo + J J U n 1X6X9XtX.   N N W.Y.l F J.L.L.H.H.K.L.H.D.F.H.D.D.",
"l l H.L.L.Y.L.L.L.H.R.E.J.L.L.X @   @   $ >X>X>XY @   . . : M }.^.Y.L.Y.H.Y.L.L.H.D.H.K.H.H.H.H.D.l ",
"l l D.K.I.Y.Y.H.H.H.H.H.H.L.L.* @ @ X $ $ ,X:X:X~   . o   f f J.Y.Y.P.Y.K.H.J.R.L.D.H.L.L.L.L.H.z D.",
"D.D.z F.L.L.H.K.J.J.J.L.J.H.L.I.W.W.J.% & E s =.#.+.4.;.%.X @ l Y.D.Y.T.L.J.H.H.H.L.J.L.L.L.Y.K.D.D.",
"F.D.D.D.L.Y.K.D.H.L.J.L.K.z L.L.J.F.J.- & s s / <.+.+.3.@.X * P.K.K.R.Y.l F.D.H.S H.H.L.H.L.L.H.D.z ",
"l z D.D.L.^.Y.S.S H.L.L.J.H.L.L.J.K.J.J.L.& X o o O O O O H.P.F.S.Y.Y.H.l D.D.L.H.D.D.H.K.Y.L.H.D.l ",
"F.D.Y.T.S.^./.D.H.H.H.H.J.L.K.G.H.L.J.P.I.= % X X + . # * z J.H.H.L.Y.L.H.F.F.D.D.D.D.D.H.L.L.L.D.F.",
"G.F.G.G.D./.E.F.H.D.F.L.K.F.D.H.K.L.K.K.F.S.D.D.l P.L.z l D.F.H.D.K.K.K.H.H.H.S.D.D.S.D.K.L.K.L.R.E.",
"L./.D.z T.G.D.T.H.H.K.L.H.D.D.K.K.L.K.G.Y.T.D.l l l D.D.D.F.K.R.L.S.D.H.K.D.D.H.K.H.H.H.L.K.K.H.L.^."
};
