/* XPM */
static char *result[] = {
/* columns rows colors chars-per-pixel */
"50 50 244 2 ",
"   c #040301",
".  c #0B0200",
"X  c #030A02",
"o  c #0A0A04",
"O  c #06070D",
"+  c #130200",
"@  c #1A0200",
"#  c #140A03",
"$  c #1B0903",
"%  c #130A0B",
"&  c #091403",
"*  c #16170F",
"=  c #0A0712",
"-  c #150B16",
";  c #250302",
":  c #210411",
">  c #36281D",
",  c #27351E",
"<  c #3D2C28",
"1  c #3C3729",
"2  c #343332",
"3  c #3A3A35",
"4  c #5C0C19",
"5  c #482B06",
"6  c #552C09",
"7  c #4A3503",
"8  c #56360A",
"9  c #482A19",
"0  c #552916",
"q  c #4B3819",
"w  c #583417",
"e  c #652318",
"r  c #4E1D2A",
"t  c #651F36",
"y  c #492A26",
"u  c #562A23",
"i  c #532C2C",
"p  c #44342B",
"a  c #4C322C",
"s  c #473828",
"d  c #543522",
"f  c #543629",
"g  c #482D37",
"h  c #552837",
"j  c #4C3332",
"k  c #473836",
"l  c #553935",
"z  c #642926",
"x  c #792A26",
"c  c #673429",
"v  c #642B36",
"b  c #633A38",
"n  c #783431",
"m  c #3D431F",
"M  c #38452A",
"N  c #2C4438",
"B  c #3A4835",
"V  c #474D11",
"C  c #624010",
"Z  c #7D4A19",
"A  c #5E7E1C",
"S  c #607F1E",
"D  c #464629",
"F  c #564626",
"G  c #53452D",
"H  c #4C532B",
"J  c #54552B",
"K  c #434433",
"L  c #494935",
"P  c #44433B",
"I  c #584936",
"U  c #4A5335",
"Y  c #575637",
"T  c #794B2B",
"R  c #7B542D",
"E  c #7F5E29",
"W  c #674E30",
"Q  c #784A36",
"!  c #675737",
"~  c #7A5739",
"^  c #617F22",
"/  c #686535",
"(  c #766636",
")  c #627433",
"_  c #363F46",
"`  c #4C2844",
"'  c #4B3443",
"]  c #563444",
"[  c #793245",
"{  c #344B4C",
"}  c #484744",
"|  c #714E4F",
" . c #685644",
".. c #765642",
"X. c #5B6042",
"o. c #686841",
"O. c #535B6D",
"+. c #665B6F",
"@. c #4F6C74",
"#. c #706173",
"$. c #862D29",
"%. c #954A04",
"&. c #91520A",
"*. c #844B14",
"=. c #914B1A",
"-. c #835519",
";. c #8B531B",
":. c #A76813",
">. c #874A26",
",. c #934A2C",
"<. c #875528",
"1. c #914E35",
"2. c #8A5B34",
"3. c #B6493B",
"4. c #A95137",
"5. c #C9473A",
"6. c #9A3B4F",
"7. c #A13848",
"8. c #8E4B4A",
"9. c #99474B",
"0. c #885849",
"q. c #9E5249",
"w. c #994654",
"e. c #8B5859",
"r. c #995656",
"t. c #AB4B47",
"y. c #B74A45",
"u. c #B54D4A",
"i. c #AB5246",
"p. c #B45143",
"a. c #B8544A",
"s. c #A84657",
"d. c #B44B54",
"f. c #A35251",
"g. c #AA5757",
"h. c #A4545C",
"j. c #B65356",
"k. c #8C6459",
"l. c #976254",
"z. c #A76243",
"x. c #9A5268",
"c. c #A84C63",
"v. c #AA5363",
"b. c #AB536C",
"n. c #936361",
"m. c #B8796F",
"M. c #C3544B",
"N. c #C75255",
"B. c #DC6D4F",
"V. c #DB6A5B",
"C. c #CD785A",
"Z. c #DD765C",
"A. c #D9785B",
"S. c #E76656",
"D. c #E56C5C",
"F. c #EC6C5C",
"G. c #F1695B",
"H. c #E67459",
"J. c #E3725D",
"K. c #EA725D",
"L. c #F0765E",
"P. c #C56C68",
"I. c #D96D6A",
"U. c #CC7869",
"Y. c #DD7363",
"T. c #DC736B",
"R. c #D5796C",
"E. c #C87874",
"W. c #D97874",
"Q. c #E66867",
"!. c #E36D64",
"~. c #EC6C61",
"^. c #ED6D6A",
"/. c #F36B63",
"(. c #F66866",
"). c #E47263",
"_. c #E97368",
"`. c #F77368",
"'. c #E86D71",
"]. c #E77776",
"[. c #F27376",
"{. c #5F801B",
"}. c #63831E",
"|. c #67881F",
" X c #698A1F",
".X c #6D921F",
"XX c #658521",
"oX c #688723",
"OX c #678921",
"+X c #6A8B23",
"@X c #688528",
"#X c #6D8C2A",
"$X c #718F2D",
"%X c #6E9123",
"&X c #719425",
"*X c #759B26",
"=X c #789E26",
"-X c #73942B",
";X c #759A28",
":X c #7A9E2A",
">X c #789833",
",X c #7AA126",
"<X c #7DA42A",
"1X c #7EA232",
"2X c #BB9A02",
"3X c #BB8716",
"4X c #A99211",
"5X c #B79416",
"6X c #9FA11C",
"7X c #B3A90F",
"8X c #BAA814",
"9X c #999532",
"0X c #BB8B26",
"qX c #B89825",
"wX c #AD9133",
"eX c #B79837",
"rX c #84A931",
"tX c #B8A639",
"yX c #C59B01",
"uX c #C39516",
"iX c #CF9516",
"pX c #D0A310",
"aX c #C79230",
"sX c #CFA52E",
"dX c #96C13B",
"fX c #939D52",
"gX c #B89746",
"hX c #B29353",
"jX c #95A84D",
"kX c #98A853",
"lX c #B4A454",
"zX c #B29472",
"xX c #9AA463",
"cX c #A7A767",
"vX c #B1B374",
"bX c #CD8874",
"nX c #CDA57E",
"mX c #BC9B84",
"MX c #BAAB8B",
"NX c #D39182",
"BX c #C8A587",
"VX c #D7A488",
"CX c #D0B28D",
"ZX c #D4C298",
/* pixels */
"XX}.OX|.}.}.XX}.}.XX}.}.+X}.}.}.}.#X&X}.A }.}.}.A A A OX,XOX%XOXoXoXXX}.S S S }.oX}.&X X+X=X}.}. X}.",
"&XOXXX}.XX}.}.}.}.XX XOX}.}.}.XXOX+X}. X*X,X|.XX}.}.XXoX&X|. X#X%XoXS oX}.S }.OXoX X+X X}.}. X}.}.OX",
"+X*X XXXoXXX}.OXoX}.oX X}.}.XX}. X+XH U U L K L K D L D D D H ) -XOXOXXXOXoX}.+X+XoX}.&X.X X&X+X*X=X",
",X%X{.OX+X X+XOX}.oXOX X X}.OX#XoX#XL s a a i i i a i f y l a D -X:X<X+X X}.oXOX#X&X X*X%X%X&X*X&X*X",
"&X+X}.}. XOX+XoX}.OXOX XXXXXH M F F zXm.zXE.T.T.R.R.W.'.W.P.W.mXw J Y J oXXXXXXX+XOX X XoX,X&XoX}.oX",
"}.XXoXXXXXXX}.XX+X+X%X#X#XrXF d w 6 E.R.I.Q././.F.K.S.F.`.`.'.P.z u 9 G oX@X{.XXXXOX%X#XOX=X&X+X XXX",
" XOXoXoXoXOXOX}.}.XXXXoXJ W 8.f.W.T.!.^.^.(.(./.J.J.Y.).F.Q.Q.].m.E.n.k.G H oXXX}.+X%X+X+X^ &X&X XOX",
"OXOXoXXX+X+XOX}.XXXXXX-XG z v.N.Q.I.^.^.(.(.G.F.J.Z.A.Z.F./.!.T.].W.f.r.i D A XX%X+X}.oX+XXX=X&XoXOX",
"}.OXOX+XOX}.XXA XX&XoX;XG z I.Q._._.).)./.~.J.Z.Z.A.C.A.F.`.L.D.).V.I.NXr G oX@XOXOX}.}.XXOXOXoXOX}.",
"}.}.XX+X}.}.S A OX&X=X#Xf z ].[.!.Y.Y.Y.K.~.Z.A.H.A.bXA.S.G.F.H.`.`.].I.e d >XoXOXOX}.}.XX+XXXoXoX}.",
"}.}.S oX+XoX}.A XXXXH G e.g.Q.[.Y.).Y.Z.J.J.J.H.F.H.A.Z.L.S.K.S.S.S.S.].g.e.W J -X+X X}.OXOX+XoXoXOX",
"XX}.}.XX+X+XXXOXXXA U f e.t.[./.~.D.Z.J.J.J.K.F.G.F.K.D.`.S.L.H.H.`.G.^.t.r.h L :XOX+X^ oXXX}. XXX}.",
"}.OXXXXXXX+X+XXX}.XXK a r.j.Q./.`.G.F.`.V.~.S.`.F.`.G./.L.S.L.B.A.H._._.u.g.i K +X+X+X}.}.}. X XOXoX",
"+XXX}.}.}.OXOXXXXX+XU j r.j.^.^.`.S.F.J.Z.)././.S.G.(.(.G.G.H.H.A.J.H.V.y.w.f U XXA }.}.oX}.+X+XOX X",
"&X+X X}.}.}.A XXXX#X1 a v.d.u.3.D._.).).Y.Y./.(.^.[.(.(.F.).H.Z.C.C.3.M.N.r.l M ;X*X}.}.}.}.OX+X#XOX",
"}. X*X+XXX}.A XXXXoXI h v.d.a.a.).).).Y.].Q.^.Q.[.Q.^.^.!._.V.Z.C.bXp.u.t.w.j D &XrX#X^ oXXXXXoX}.OX",
"{.{.#X%XOX{.}.+XoXXXf t v.d.d.3.M.3.y.M.I.'.[.'.[.I.R.R.T.T.p.p.t.p.t.u.g.n.j s +XXXOXOXoXXXXXOX X}.",
"XXXX{.%X<XXXXXoX$XXXl ] b.w.j.3.u.a.p.a.I.].W.E.W.m.m.U.R._.M.y.y.y.u.g.r.e.y K #X@XoXOXoX+XOXOXXX}.",
"oXoXOX%X*X%XXX#XY M k 2 j u f.j.i.4.p.p.a.f.c f k D D F q.a.y.y.N.M.j.9.c l j <  .D oXoXOXoXOXOXXXXX",
"XXXXXXOX{.XX;X-XH k 3 2 k g l.i.i.p.i.t.g.l.s M B M M q e.f.d.y.N.y.a.r.l > y f < U #XoXOX+XOX+XOXXX",
"XXXX{.}.XXXXOX&XO   BXmX' ] | z.4.3.M.1.b s M N B M m D P l q.u.5.5.4.l.y y CXBX  O +X+X%X%X X}.OX+X",
"+XXX}.}.}.}.OX*X    nXBX` ` n.0.a.3.t.9.b K P k s d q f k ] r.a.3.u.r.k.i g VXBX  O #XOX<X<X}.}.}.OX",
"}.XXXX}.XX}.+X+XX $ nXVXh ` ' ` u v v.g.f.r.h.h.i.i.s.h.x.x.h.r.v h ` < i 0 nXVX+ # @XOX#X#X}. X X}.",
"A }.}.XXXX|.|.:X* . BXVXr ` h < h y r.r.f.h.c.v.j.j.c.b.b.b.e.e.g < ` ' y w CXzX$ # #X%X,XOXXXOX}.A ",
"A {.XXXXOX=XOX+X>X%X$ @ v h 0.R 8 q p g j g g h ` h i h h ` g l 9 d ..Q 9 q . # #X@X+X%X;XOXXX}.}.A ",
"A }.{.XX+X*X*X*X#X#X# # i y T R 5 8 q g p 1 g 3 ` g a p g g < d 6 w Q ~ q D   o #XOX%X#X*XOX}.}.A A ",
"A A {.}.oXXX<X,X%X}.1XdXX & s s 0.T ..Q R R ~ ~ ......W 2.R <.>.>.Q y l     #XXX#X+X&X*X&X%X%X.X{.A ",
"A {.}.XXoX+X XXX,X&XOX;X& X K k  .0.1.>.;.;.<.<.R R ~ T <.Z =.=.,.~ p M X o &XoXXXOX;X,XOX+X%XOX}.A ",
"+X X}. XOX=X XoX<X&XOXXXoX#X  . y u T 1.Z *.,.*.,.,.>.2.Z -.<.>.w q   X $X+XXX+X+X;X&X^ %X,X}..X}.}.",
"+X X#XOXoX+XXXS &X;X+XOX%X&X    ' f ( 2.<.2.>.4.=.,.<.Z E <.R l.9 < X & oX^ %X*X+X:X;XS OXOXOX%X}.}.",
"oX X+X%X+X&X<X+X%X%XOX%X%X-XX.' .   . . y 9 T ;.=.=.-.E 9 q . .   . < Y @XS OX&XOX|.*X|.oXoXXXXX}.|.",
"+X&X+XOX X,X<X&X{.{.OXOX;X;XY 2 %     . k f <.*.;.<.T 2.u y o     % } L ^ oX#X&X XXXOXOXoXXXOXOX}.%X",
"%XOX%X+X|. X+X%XOX}.*X&X&   K } g F lXwX5 u 5 d 0 0 n 4 t x wXtXq > P } - * #X,X;XOXXXOXOXOX+XoXOX+X",
"%X*XOXOX#X+X+X|.}.XXXX#X&   B P i 8 4XsX6 w w 5 6 8 e x t 0 0X5XC I 3 3 O - OXXX,XoX{.XXOX+XoXOX X|.",
"*X*XOX%X*X%X}.XXOX^ o o { { 3 k ] n sX3X@ + 9X6XsX5XuXwX. + 5X3X>.h } 2 { P $ # +X%X}.}.oX+XoXOX}.oX",
"OXXX+X%XOXOXXX#X+X^ # . 2 _ B L [ x aXeX@ # 6X7XyXyX2X8X.   tXaX$.[ B M 1 D $ $ #X<XOXXX}.XXXXOXoXXX",
"{.XX}.OX X+XXX-Xo.Y xXvXmXzX  + c.6.; @ eXqX7X7X2XyX7XpXtXeX@ ; 7.s.+   zXzXcXjX/ / <X#XXX}.|.XXOXOX",
"XX{.}.OX+X&XoXoX! o.MXZXVXzX. + w.c.@ @ gXaX7X2XyXyXyXyX3XeX+ ; d.7.. . lXvXvXvX~ ( &XOXXX{.XXXX|. X",
"}.}.+XOXOX+XXXXX . .cXMXCXjX. . n x w 6 =.%.uX2XiXpXyXpX%.<.7 q $.n + . kXfXxXcXQ ~ XXXXXXXX}.XX}.|.",
"{.}.}.}.XX}.A A o.Y fXcXcXjX  o h n 0 6 &.&.iXiX3X3XiX:.&.<.7 8 n ] O O jXfXfXcX! / OXXX+XoX{.}. X|.",
"}.}.XX}.XX}.OX}.XX@X! R Q W } _ +.#.s 7 0XaX%.%.:.%.;.:.0XaX6 9 +.+.N M W T Q ( -X+XXX+X&XXX}.+X X|.",
"}.}.OXXX}.oXOXOXXXXX/ !  . .} { O.O., V eXaX%.%.%.&.*.>.eXgX5 2 O.@.N U / ( ( (  X%X+X+X%XXX+X+X}.}.",
"A }.|.OX}.OXoXXX}.OX#X+X-XOX- = { { @.{   ; 0XsX3X5XiXaX+ X @.@.{ N X   oX#X1X&X}.+X+X+X+X+X#X}.A A ",
"}.}.}.#XOX+X+XXXXXOX*XOX}.XX%   } B @.+.= . hXwXwXtX0XgXX O @.O.} B . o -XXXOXXXoX}.XX%X&X+X+X}.A {.",
"}.}.}. X+XOX+XoXoXXX}.oXXX#X# ; 9.w.7.w.l k } k G D D D 1 P 8.r.6.w.; $ XXXXOXXXOXOX+X}.+XOXoXS }.}.",
"{.}. X+X+XXX+XoXXXXX}.}.XXXXo ; w.d.d.9.L B } } L U N M J F 8.6.c.s.; > @XoX#XOX+X}.}.|.&XoX}.}.}.}.",
"}.}.XX+X%XoX}.}.S  X+X}.}.S oX&X  . @ % S }.XX+X*X<X#XoX@X#X$ : : - OX$XXXoX+X+XXX}.}.%X=X+X}.}.}.A ",
"}.}.+X+X+X}.}.}.S }.}. X}.XX+X&X&   * o }.A {.{.}.OX|.%X{.oX% = - O #XoXoXoXXXXX}.XX X,X,X}.&X%X}.|.",
",X&X+XOX+X+X}.}.}.}.}.}.XX}.OXOXoX}.oX+XS A S }.A A A A A }.OX$X%XOXOX}.}.}.+X X XXX}.*X<X{.+X%X}.+X",
",X%X}.}.OX+X}.XXoXOX}.}.}. XXX}.}.+X=X+X X}.}.}.S A A |..X.X|. X#XOX X}.}.XX+XOX}.oX&X|.+X&X{.}.,X%X"
};
