/* XPM */
static char *result[] = {
/* columns rows colors chars-per-pixel */
"50 50 249 2 ",
"   c #030302",
".  c #0C0202",
"X  c #030B03",
"o  c #03020C",
"O  c #090809",
"+  c #130200",
"@  c #1A0101",
"#  c #140904",
"$  c #1C0C03",
"%  c #14040B",
"&  c #071307",
"*  c #12150C",
"=  c #060415",
"-  c #150B17",
";  c #081716",
":  c #131814",
">  c #230302",
",  c #231714",
"<  c #342F0F",
"1  c #2F1F20",
"2  c #342E2B",
"3  c #34382B",
"4  c #393539",
"5  c #501A1A",
"6  c #6B1E1F",
"7  c #452E1D",
"8  c #562C1C",
"9  c #401D3B",
"0  c #472A27",
"q  c #592B27",
"w  c #473729",
"e  c #553528",
"r  c #4D2F31",
"t  c #483635",
"y  c #543736",
"u  c #6A3230",
"i  c #384E0C",
"p  c #374327",
"a  c #324733",
"s  c #454A1C",
"d  c #5E7D1C",
"f  c #607F1E",
"g  c #48472A",
"h  c #55482A",
"j  c #4C522A",
"k  c #4E5D29",
"l  c #54572B",
"z  c #474537",
"x  c #564735",
"c  c #4B5534",
"v  c #5A5937",
"b  c #724D2F",
"n  c #78493B",
"m  c #675839",
"M  c #755638",
"N  c #53642B",
"B  c #5A6632",
"V  c #6C752F",
"C  c #676338",
"Z  c #392944",
"A  c #2F3946",
"S  c #383B48",
"D  c #452B46",
"F  c #483A46",
"G  c #53344A",
"H  c #6A3E53",
"J  c #5A3B64",
"K  c #364551",
"L  c #33625A",
"P  c #39716E",
"I  c #4E4B4C",
"U  c #694A45",
"Y  c #774747",
"T  c #685947",
"R  c #775744",
"E  c #674D5B",
"W  c #764F52",
"Q  c #675558",
"!  c #795453",
"~  c #456158",
"^  c #77694D",
"/  c #595E68",
"(  c #645760",
")  c #765668",
"_  c #4D6C69",
"`  c #776A73",
"'  c #863A38",
"]  c #9D323C",
"[  c #B23637",
"{  c #86531E",
"}  c #AF4D17",
"|  c #8A4B2F",
" . c #AA452A",
".. c #A9483C",
"X. c #B9493B",
"o. c #B8503A",
"O. c #C2463B",
"+. c #823442",
"@. c #A83D45",
"#. c #BB3E44",
"$. c #874F4A",
"%. c #9A454A",
"&. c #8F4859",
"*. c #974856",
"=. c #895659",
"-. c #985658",
";. c #AB4847",
":. c #B74A47",
">. c #A8524D",
",. c #B85546",
"<. c #A64856",
"1. c #B44954",
"2. c #A85756",
"3. c #B65456",
"4. c #8F6059",
"5. c #965D64",
"6. c #885474",
"7. c #9B5C75",
"8. c #A55968",
"9. c #B55865",
"0. c #9F6269",
"q. c #B17076",
"w. c #C24C49",
"e. c #C2554C",
"r. c #CF6E5B",
"t. c #DC6A58",
"y. c #DC745D",
"u. c #E6685B",
"i. c #EC6B5C",
"p. c #F1675C",
"a. c #E2735C",
"s. c #E7755C",
"d. c #D86C6B",
"f. c #C8746A",
"g. c #DA7767",
"h. c #DC746C",
"j. c #D36F71",
"k. c #C87976",
"l. c #D87874",
"z. c #E46966",
"x. c #EE6C65",
"c. c #F46866",
"v. c #F36C65",
"b. c #E27463",
"n. c #E3736B",
"m. c #ED726B",
"M. c #E67A68",
"N. c #F47366",
"B. c #F26D71",
"V. c #E67472",
"C. c #63831E",
"Z. c #67881F",
"A. c #698A1F",
"S. c #658521",
"D. c #688724",
"F. c #678921",
"G. c #6A8B22",
"H. c #6C8B2B",
"J. c #718E2E",
"K. c #6E9223",
"L. c #6F9129",
"P. c #719425",
"I. c #759B26",
"U. c #789E26",
"Y. c #73942C",
"T. c #769A2A",
"R. c #7A9E2C",
"E. c #789834",
"W. c #7AA226",
"Q. c #7EA827",
"!. c #7DA329",
"~. c #A99822",
"^. c #B09231",
"/. c #81A631",
"(. c #CA922D",
"). c #CBA43D",
"_. c #B69040",
"`. c #B48B77",
"'. c #BAA27C",
"]. c #C89767",
"[. c #D4827B",
"{. c #CE9376",
"}. c #C69879",
"|. c #F29478",
" X c #C8A77A",
".X c #D6A478",
"XX c #3A6D80",
"oX c #996D88",
"OX c #CB7F85",
"+X c #BDA28A",
"@X c #B8A29D",
"#X c #AC9DAA",
"$X c #B5A4AC",
"%X c #B8AAB8",
"&X c #CF8D88",
"*X c #C89A8A",
"=X c #D79C88",
"-X c #E5949C",
";X c #C8A586",
":X c #D5A785",
">X c #D6B38C",
",X c #C7A796",
"<X c #D5A696",
"1X c #CDB991",
"2X c #E6A895",
"3X c #D4A8A6",
"4X c #C9A6BA",
"5X c #D3A7B8",
"6X c #DCB1B8",
"7X c #EEAFB5",
"8X c #ECCBA9",
"9X c #F5CAAA",
"0X c #EED1AB",
"qX c #EFD1AD",
"wX c #F3D6AA",
"eX c #EBCCB7",
"rX c #FCCAB5",
"tX c #FACAB9",
"yX c #EED5B6",
"uX c #F8D6B7",
"iX c #BCABC9",
"pX c #A9BACD",
"aX c #B8B4C9",
"sX c #A7B9D8",
"dX c #B9B8D8",
"fX c #B5BCE5",
"gX c #C9AAC7",
"hX c #D4ACC2",
"jX c #C4B5CA",
"kX c #D6B8C9",
"lX c #C2B8D8",
"zX c #D5B4D4",
"xX c #E5ADC3",
"cX c #BAC1D4",
"vX c #AFC4E3",
"bX c #B5C2E8",
"nX c #C8C4D1",
"mX c #FCCAC4",
"MX c #F9D5C6",
"NX c #F2D1D3",
"BX c #FDDDD5",
"VX c #FFE9C3",
"CX c #FFE4D7",
"ZX c #EFDBEB",
"AX c #D9EDFB",
"SX c #FAE6E5",
"DX c #E9E8FC",
"FX c #FBEBFB",
"GX c #ECF0F7",
/* pixels */
"S.C.S.Z.C.C.S.C.C.S.C.Z.F.C.C.S.C.G.P.D.f C.C.C.C.d f A.W.A.K.Z.C.D.S.C.f f C.C.Z.S.P.A.K.I.C.C.Z.f ",
"P.F.F.C.S.C.C.C.C.C.D.A.C.C.C.C.F.G.N k N N j j j j l l l j l k L.S.f D.Z.f f D.G.C.G.A.C.C.A.C.C.A.",
"G.I.A.S.F.S.C.F.D.Z.G.A.C.f D.S.G.P.l e e e e 8 8 8 8 8 8 8 e h J.G.D.D.D.C.C.G.G.G.C.P.P.A.K.G.U.U.",
"W.K.C.C.G.A.G.F.C.D.F.F.Z.D.B h h h q.`.k.k.g.g.h.b.d.l.l.[.&Xq.x h h B H.Z.D.G.H.K.A.I.G.K.P.U.P.P.",
"P.G.C.C.A.F.F.D.D.D.F.A.G.A.w e 6 6 k.l.g.n.N.N.x.i.m.z.n.d.l.k.6 q u x D.F.S.S.G.G.A.Z.G./.P.S.C.Z.",
"C.S.F.D.D.S.C.S.A.A.G.G.l h 4.2.j.n.b.M.r.g.i.N.a.y.u.i.m.M.M.n.b.h.;.-.g N f S.C.D.G.L.A.I.P.G.A.D.",
"A.F.D.S.D.D.F.C.Z.D.S.G.l y -.>.m.v.a.b.a.s.i.i.t.a.s.i.p.u.y.b.x.N.e.9.y c S.S.C.K.G.G.G.f P.P.D.A.",
"F.F.D.S.G.F.A.S.C.D.S.P.j e 2.,.z.c.u.i.s.N.p.p.N.N.N.N.v.c.b.g.a.u.X.%.y g S.S.K.G.f G.G.S.U.P.D.G.",
"C.F.F.G.G.S.C.d S.P.S.T.g y j.V.m.N.v.p.p.c.z.x.v.u.u.u.x.c.h.y.a.a.s.&X0 h S.F.F.G.C.S.S.F.F.S.D.f ",
"C.C.S.G.C.C.C.d D.P.U.F.h 5 OXB.t.u.i.i.c.x.n.h.B.m.n.M.c.c.g.y.a.s.y.f.r x G.C.Z.F.C.C.F.F.S.D.Z.Z.",
"C.C.f D.F.F.C.f S.C.P.E.U q j.m.x.|.u.x.v.d.g.f.d.V.g.j.B.B.n.g.y.a.s.[.q g Z.P.G.G.A.C.F.F.G.D.Z.D.",
"S.C.C.C.G.F.S.F.S.f * , 5 u h.z.u.t.u.M.g.f.&X`.q.[.{.f.d.z.n.g.s.s.s.r.6 r @ , U.G.F.f D.D.D.Z.S.C.",
"C.G.D.C.S.G.G.D.C.D.c t 5.>.,.X.b.y.y.n.f.}.MXCXMXBXCXrX-XV.d.z.s.a.X.e.2.=.y k Y.G.G.f C.C.A.A.F.D.",
"G.C.C.C.C.D.F.C.S.D.z y -.1.,.o.a.a.M.f.k.`.BXCXBXMXBXBXk.OXOXV.b.t.O.X.3.7.t c S.d f Z.F.C.G.G.G.F.",
"P.F.F.C.C.C.d C.D.D.  @ *.>.,.o.o.,.;.>.7X3XFXBX5.=.CXSXhX-X1.#.,.e.O.w.;.*.. & E.U.S.C.C.C.D.G.F.F.",
"Z.A.I.G.C.D.d S.C.H.* + -.;...,.X.e.3.<.xX6XNXBX-.0.SXNXzX5X8.9.>.;.:.e.:.8.  & T./.G.f D.C.C.D.D.D.",
"C.f G.K.F.d C.F.D.S.  . 4.>.2.,.:.1.%.&.hXhXoX7.*.&.` 4.aXkX7.8.2.2.:.:.;.5.  X G.S.D.S.D.D.S.F.A.C.",
"S.S.C.K.!.F.C.F.S.C.O % 4.$.2.;.2.<.7.oXgXzX6.6.7.7.) 6.aXjX6.6.=.2.>.>.2.=.X X L.D.D.D.D.G.D.Z.F.C.",
"S.D.F.K.U.K.S.S.H.S.    t e -.2.7X7XhXiXfXlXgXzX4XhXkX%XlXlXiXzXnX7X2.%.u 0   & E.L.F.S.D.Z.F.F.S.S.",
"S.C.C.F.C.S.T.T.B g * O t r &.2.7X4XdXbXbXfXfXcXiXzXkXkXlXdXdXdX4X3X-.-.q y     m l G.F.F.G.F.F.S.S.",
"S.C.C.C.C.C.G.Y.c z + . t w =.0.xXgXdXvXsXbXvXpXnXjX4XhXlXdXfXdXgX6X5.=.0 w . . e g L.G.K.K.A.S.F.G.",
"D.F.C.C.C.C.D.I.O . :X].! E e r G D aXcXDXAXAXAXAXGXSXFXDXDXpXdXZ G 0 e ! n {.*X. * G.F.!.!.C.C.C.F.",
"f S.C.S.D.C.F.G.  . ]..XW E r 2 9 D lXjXZXFXAXAXGXZXSXZXDXGXaXaXJ 9 2 g n n |.:X  & D.F.D.G.S.F.A.C.",
"d C.C.S.F.F.C.K.  $ .X{.G Z Q ^ E E E ) &.U t 2 2 F 4 S ( ( ( ) J ) T T w 8 ].{.. : H.G.!.D.D.F.C.C.",
"d C.C.C.F.W.F.Y.: # +X,XD Z Q x T Q U W Y M 8 7 y 2 4 4 E Q E E ) W m C 2 7 =X+XO : G.K.W.F.C.C.d d ",
"d d C.C.G.I.T.P.E.D.# . Z F ;X XT T ,X;Xq e ,X<X<X*X,X@Xy D $X$XW M '.1X2 y @ $ K.H.G.K.I.G.C.Z.d d ",
"d d C.C.D.D.!.W.G.H.- - 4 0 .X.Xm T +X+X7 0 *X}.<X=X=X<X0 4 %X#XT M ].'.y 4 O # G.G.P.I.K.K.K.K.C.d ",
"C.d C.C.D.G.F.S.W.P.F.R.# > .X].>X'.CXBX$ + MXuXrXrXrXrX@   ZXGX;X X.X1X. O T.H.D.D.T.W.S.F.K.A.C.d ",
"A.D.Z.Z.A.U.D.D.Q.I.S.S.# $ :X.X].;XCXCX@ . uX9XtXtXrX9X@ + SXCX,X}.:X`.# : H.G.D.I.Y.C.K.W.C.G.C.C.",
"G.D.G.G.Z.G.C.f K.U.F.S.T.E.@ @ ;X;XMXNXyXwXwXqXMXMXuX0XwX9XMXmX<X;X@ $ H.S.K.I.H.U.U.d S.F.Z.K.C.C.",
"D.A.K.G.G.P.W.K.G.K.F.P.G.Y.: . ,X*XMXeXuXuXwXuXeXMX8XVX9X9XtX7X&X3X@ O S.d G.Y.F.F.P.F.D.D.F.F.C.Z.",
"G.P.G.F.F.W.!.P.C.f F.F.Y.R.O o Y n '.1X8X9XuXwX}.:XwX8XwXuX2X2Xb b . o f f G.P.A.C.F.F.F.S.D.F.C.A.",
"K.Z.P.G.F.G.G.K.F.S.I.K.T.E.; X | | :X:XMXMXyX8X.X.XwXqXyXMX&X=X{ | . O K.F.F.W.T.F.C.F.C.S.K.F.A.G.",
"K.I.F.F.G.G.G.C.C.C.F.F.& : A g ^.r.| Y 2 3 +X>X.X.X}.<X2 4 ! | ^._.h 4 - - F.C.W.F.C.S.H.F.F.S.D.A.",
"I.P.F.G.I.K.S.S.F.f H.Q.  & 3 p ).(. .$.y S @X,X;X.X>X*XG G $.b (.~.< c = - R.f F.G.C.C.D.G.D.S.S.C.",
"F.S.K.K.F.F.S.G.F.S.m 4.t a a s ~.(.} | 4XaX4 1 x < 7 4 #X4X%. .(.~.i a A F T B F.Q.G.S.C.F.F.F.D.Z.",
"C.C.C.F.A.F.S.Y.Y.D.b n w g p g ^.(.} ..3XgXD t 3 3 3 I 4XxX@. .(.~.i a z y U M Y.W.W.G.S.C.C.S.F.F.",
"C.C.C.F.G.P.D.S.C m eXmX,X,Xg p C { [ [ @.2.5X%XI S pX%X&.#.[ [ { V g w ;X,XyXtXM ^ K.G.C.C.F.C.A.A.",
"C.C.A.F.F.G.C.f T U eXuX<X*Xw p v R ;.#.#.@.3X$XS K sXiX<.[ #...M ^ t 7 ;X X8XuX$.R S.C.C.S.S.S.Z.C.",
"C.C.C.C.S.S.d S.v U MXuXmXmX@ +   + ' ] @.%.6XnXA S dXgX@.#.] ] .   o + MXyX0XuXn m D.S.D.F.C.C.A.C.",
"C.C.S.C.S.C.S.D.C v eX9XmXBX%   =   H +.%.&.@X%XK S iXgX*.>.' u o = o % eXMXyX8X^ l S.G.P.S.C.Z.A.Z.",
"C.C.F.S.C.C.G.F.H.J.b b ' u %   _ _ @ @ @ @ . O o o % - @ + # X / / = - U n u M H.P.A.G.K.D.G.G.C.C.",
"d C.F.F.S.F.F.D.C.H.C M M T   o _ _ o o . o X X o o = = X X     / / = O m R M V D.G.G.G.G.G.L.C.d d ",
"C.C.S.G.F.G.G.S.C.F.R.J.D.H.& ; K A S 4 ~ _ P P I S P P L _ p 3 I F   * Y.F.H.D.Z.C.S.L.P.G.D.C.d d ",
"C.C.C.A.G.D.G.D.F.C.S.F.S.J.X = 2 G G F _ L P P A K XXXX_ ~ z w t t .   D.D.D.F.F.F.G.C.G.F.D.C.C.C.",
"d C.A.K.G.F.D.F.S.S.S.C.S.f # > &.<.<.&.>   X & = = = = o   =.*.<.&.@ X S.F.G.D.F.C.C.Z.P.D.C.C.C.C.",
"C.C.C.G.K.D.C.C.S.C.G.C.d S.$ > *.<.<.*.> X o O ; = = -   # =.*.<.&.# < H.D.G.D.D.C.C.K.W.G.C.C.C.d ",
"C.C.G.G.G.C.C.d C.C.C.C.S.S.L.R.# . + $ D.D.S.f H.H.H.L.S.D.+ @ % * G.J.D.D.F.S.C.C.C.Q.U.f P.K.C.Z.",
"U.P.G.F.G.G.C.C.C.C.C.C.S.C.F.J.& X X X D.C.f Z.d d f d d A.X   o O F.S.S.C.G.A.C.S.A.U.!.d A.K.C.K.",
"W.K.C.C.G.G.C.S.D.F.C.C.C.A.C.C.S.P.R.L.A.C.f f f f d C.P.K.Z.A.G.D.G.C.f S.G.F.D.A.P.C.G.P.d C.W.K."
};
