/* XPM */
static char *result[] = {
/* columns rows colors chars-per-pixel */
"50 50 237 2 ",
"   c #030301",
".  c #0C0300",
"X  c #080A04",
"o  c #130201",
"O  c #1B0201",
"+  c #160B04",
"@  c #071204",
"#  c #171805",
"$  c #040815",
"%  c #120F11",
"&  c #230D0C",
"*  c #162207",
"=  c #1A2312",
"-  c #372D10",
";  c #362C2C",
":  c #363A2E",
">  c #393439",
",  c #641E1E",
"<  c #4C2A0A",
"1  c #552A09",
"2  c #4A3307",
"3  c #533805",
"4  c #4B2919",
"5  c #552B18",
"6  c #493418",
"7  c #58371B",
"8  c #622D05",
"9  c #65320C",
"0  c #471C26",
"q  c #4A2929",
"w  c #562A29",
"e  c #542E2D",
"r  c #493728",
"t  c #52342B",
"y  c #482A35",
"u  c #532B36",
"i  c #493836",
"p  c #563437",
"a  c #6F3032",
"s  c #6A3936",
"d  c #3C4537",
"f  c #385130",
"g  c #5A4306",
"h  c #50451C",
"j  c #7B4F0C",
"k  c #795A15",
"l  c #5E7E1C",
"z  c #607F1E",
"x  c #49482B",
"c  c #564A2A",
"v  c #4B552D",
"b  c #58572A",
"n  c #464738",
"m  c #564A36",
"M  c #475536",
"N  c #545935",
"B  c #644829",
"V  c #784B29",
"C  c #69562F",
"Z  c #794C39",
"A  c #795838",
"S  c #5E7C20",
"D  c #596535",
"F  c #617F21",
"G  c #6B6E36",
"H  c #343442",
"J  c #3B3948",
"K  c #4A3A43",
"L  c #50344B",
"P  c #693A46",
"I  c #70394B",
"U  c #3E494B",
"Y  c #3C6263",
"T  c #434649",
"R  c #534754",
"E  c #69434A",
"W  c #794C49",
"Q  c #75504D",
"!  c #6F6648",
"~  c #586572",
"^  c #61606C",
"/  c #8E3236",
"(  c #823837",
")  c #864C12",
"_  c #8E5311",
"`  c #915418",
"'  c #816400",
"]  c #874928",
"[  c #84532B",
"{  c #8C5233",
"}  c #A94A3B",
"|  c #B84B3C",
" . c #AD533C",
".. c #B2513B",
"X. c #80643D",
"o. c #C7473A",
"O. c #873D47",
"+. c #A93A47",
"@. c #814549",
"#. c #994544",
"$. c #855644",
"%. c #99574A",
"&. c #884D59",
"*. c #8D5857",
"=. c #9D5254",
"-. c #965759",
";. c #A84A48",
":. c #B34E44",
">. c #B44D4C",
",. c #B94A48",
"<. c #A95447",
"1. c #B25244",
"2. c #B4554B",
"3. c #A84B53",
"4. c #B44B53",
"5. c #B94852",
"6. c #A85858",
"7. c #B65756",
"8. c #8A6458",
"9. c #8E5960",
"0. c #975A62",
"q. c #A65E63",
"w. c #97636A",
"e. c #C9554A",
"r. c #D15450",
"t. c #EB5C54",
"y. c #DD6A5B",
"u. c #DE7255",
"i. c #E56A58",
"p. c #EC6E5D",
"a. c #F26B5D",
"s. c #F56C5C",
"d. c #E77356",
"f. c #E4735B",
"g. c #EA725C",
"h. c #DC6B67",
"j. c #CA786C",
"k. c #DE7464",
"l. c #DB736D",
"z. c #D7796C",
"x. c #CA7775",
"c. c #DB7873",
"v. c #EB6E63",
"b. c #E86969",
"n. c #F56965",
"m. c #E47264",
"M. c #EA7263",
"N. c #E67469",
"B. c #F27568",
"V. c #E57475",
"C. c #F37375",
"Z. c #5F801B",
"A. c #63831E",
"S. c #66881F",
"D. c #698A1F",
"F. c #658521",
"G. c #688623",
"H. c #678921",
"J. c #6A8B22",
"K. c #678629",
"L. c #6C8B2A",
"P. c #708F26",
"I. c #6E9223",
"U. c #719525",
"Y. c #759B25",
"T. c #799E26",
"R. c #72942A",
"E. c #769A29",
"W. c #799D2B",
"Q. c #789834",
"!. c #7AA226",
"~. c #7FA827",
"^. c #7CA32A",
"/. c #7EA431",
"(. c #BC9C00",
"). c #BB891A",
"_. c #B79817",
"`. c #BFA000",
"'. c #B69334",
"]. c #82AA2C",
"[. c #87AE32",
"{. c #C69906",
"}. c #C7A30B",
"|. c #CA9126",
" X c #C59638",
".X c #C2A326",
"XX c #969750",
"oX c #AE964D",
"OX c #8BA548",
"+X c #AAA04B",
"@X c #B89373",
"#X c #CE9643",
"$X c #D4A45B",
"%X c #C69D77",
"&X c #D39475",
"*X c #D9A366",
"=X c #CCA774",
"-X c #D5A677",
";X c #555E85",
":X c #446588",
">X c #5B6589",
",X c #938591",
"<X c #B5988A",
"1X c #AA97A5",
"2X c #B2A8AC",
"3X c #B5ABB7",
"4X c #BAB6BD",
"5X c #C9998A",
"6X c #DB9A8D",
"7X c #CC9796",
"8X c #D49997",
"9X c #E08084",
"0X c #CCA389",
"qX c #D7A784",
"wX c #D9A898",
"eX c #E3A799",
"rX c #CFADAD",
"tX c #CAAAB7",
"yX c #F7BEB1",
"uX c #E9CAB5",
"iX c #FBC9BA",
"pX c #EDD4B6",
"aX c #F8D6B7",
"sX c #B4B2C0",
"dX c #C3B8C9",
"fX c #D2BBCB",
"gX c #DDD0C2",
"hX c #FBCDC5",
"jX c #EBD7C9",
"kX c #FCD8C9",
"lX c #FBDCD7",
"zX c #E5DBEB",
"xX c #FCDEE6",
"cX c #FCE4E4",
"vX c #ECE7FB",
"bX c #F3ECF6",
"nX c #F8E9F9",
/* pixels */
"F.A.S.H.A.A.F.A.A.A.A.D.H.A.A.A.F.J.U.A.Z.A.S.Z.Z.Z.l D.!.H.I.H.H.H.F.A.A.A.A.A.F.F.U.J.I.Y.A.A.A.A.",
"U.H.F.F.F.A.A.A.A.G.H.D.A.A.A.A.G.J.A.D.Y.~.S.G.S F.F.Z.U.S.J.J.I.H.F F.A.l A.H.G.S.J.D.A.A.D.A.A.D.",
"J.Y.D.A.H.A.A.H.G.A.H.H.A.A.F.G.G.J.L.F v v v x x x M x x v v v D J.H.A.H.G.A.J.J.G.A.I.I.D.J.J.T.T.",
"T.U.Z.H.J.D.J.H.A.G.J.H.H.F.H.H.F.K.L.x r t q p t t e e e t t r c ^.^.D.G.A.H.H.P.U.J.Y.P.U.U.T.U.Y.",
"U.J.A.A.H.J.H.G.S.H.H.J.H.S.K.H.L.b m *.%.&Xz.l.c.j.j.z.c.N.c.x.@XB B c b L.A.A.J.H.J.S.H.].U.F.A.H.",
"A.F.H.F.G.F.F.F.J.J.J.J.J.T.I.W.[.r q <.} y.p.p.M.m.k.p.n.s.v.k.j., w w m L.F.F.F.G.J.P.H.T.U.J.J.A.",
"J.H.H.G.G.G.H.A.S.H.A.K.!.T.H.b m 8.-.&Xy.B.v.i.i.k.m.p.a.a.v.m.z.x.&X*.*.m v z A.U.J.H.G.F.U.U.S.H.",
"F.H.G.G.H.J.H.A.A.H.A.I.Y.T.W.m p =.<.h.y.v.p.f.M.m.m.M.a.a.p.m.z.7.x.q.q.w m G.J.J.A.G.H.F.T.U.H.H.",
"A.H.H.J.H.A.F.z F.U.F.R.W.W.W.n y c.N.C.V.B.f.u.u.f.m.v.v.a.g.f.k.z.z.x.x.w i J.J.H.A.F.F.H.H.H.H.A.",
"A.A.F.J.F.A.z l H.U.!.D.I.W.K.T p V.n.b.b.N.m.f.f.m.v.v.v.p.d.d.f.g.m.V.9X, e K.G.H.A.A.F.G.G.G.H.G.",
"A.A.z G.H.H.A.l F.F.U.D.E.D M 1XtXV.n.b.N.M.g.g.f.g.v.v.v.p.d.f.d.a.i.B.h.q.9.i v J.H.A.H.H.J.G.G.G.",
"A.A.G.A.J.J.F.J.F.z F U.].d K 4XtXx.V.h.m.m.d.d.d.m.v.v.v.d.f.d.d.i.a.n.C.+.0.L M H.H.F.F.F.G.S.F.A.",
"A.H.F.F.A.J.J.F.F.F.L.M d ~ ^ w.0.xXhXc.N.i.B.g.m.v.v.b.v.m.f.f.d.s.s.s.C.3.-.y M U.J.F A.A.D.D.H.F.",
"J.F.F.A.F.G.J.A.F.G.F.d H ~ R 0.*.cXcXj.u.i.i.i.i.v.N.N.m.m.m.f.d.i.s.t.b.4.q.y x F A.A.F.A.J.J.J.H.",
"U.H.D.A.A.A.S A.F.v : zXvXvXbX*.0.cXcX%...g.v.b.C.m.N.N.N.l.k.k.i.M.a.r.e.;.q.q M W.F.A.F.A.G.J.H.H.",
"S.D.Y.J.A.A.l F.F.n U vXbXvXbX8.8.cXlX<. .m.g.y.y.m.k.h.N.N.l.k.m.i.i.o.o.;.0.q m ~.J.F.F.F.F.F.H.J.",
"A.S J.I.H.Z.Z.H.L.d K zXzXnXnX1XrX0.q.;.}  .2.| r...1.,.,.>.,.2.:.| e.| | 2.q.q n F G.F.G.G.F.J.D.A.",
"F.F.A.I.!.F.F.H.G.d J vXnXnXnXdXrX6.4.7.7.:.1.} ......:.,.>.4.>.2.} | | 1.3.6.u c K.G.G.G.J.H.H.A.F.",
"F.K.H.I.!.L.F.H.F.n T sX3XvXnXL I 7.,.5.4.>.7.<.<. . .:.>.5.4.>.<.2.1.1.1.<.-.w m L.G.F.H.G.H.H.F.F.",
"S.A.F.H.Z.H.E.I.I.M : 2XdXbXnXL I 3.r.+.5.7.#.<.<. . .1.>.4.4.3.<.<.} 2.2.-.*.e x L.J.J.H.H.J.H.F.F.",
"H.A.Z.A.F.A.H.Y.E.[./.n y dX3XdXdXa / +.q.3.;.7.>.2.;.;.2.>.7.:.1.>.7.;.6.a p q x F.J.P.J.U.D.G.J.H.",
"H.F.A.F.F.Z.K.Y.A.^.!.m T 3XdX3XfXI O.&.0.*.*.3.3.;.%.6.q.=.6.6.6.6.=.0.0.0 q q c F J.H.^.^.A.A.A.H.",
"A.F.A.F.F.A.J.J.H.Y.!.L.L.> > L 0 L y y q y t q e p y u y y L y q u y u u W X.5 c P.J.H.J.J.F.H.D.A.",
"l A.A.F.F.H.S.I.E.J.F.H.L.n K > L L > L i y i r t y y y y K > K p q q q 4 $.V B h P.J.L.^.G.F.H.A.Z.",
"l z A.A.D.!.H.J.I.H.H.H.Q.m P P E   $ ,X,XQ E q 4 W @.5 5 [ [ V V A [ %.[ < 7 OXL.H.J.I.E.J.Z.Z.A.l ",
"l A.A.A.J.Y.U.Y.I.J.~.!.R.! W W E     1X1XI @.w w { { 1 9 ) ` [ [ [ V j [ 6 x Q.R.K.J.I.Y.J.S.S.l l ",
"l l A.A.G.F.^.!.J.Z.~.[./.b s 8X8X$ $ zXxX8X6X5 1 5XwX%X%X7 5 V A A 8.6 6 X X Q.J.L.R.Y.I.I.I.I.Z.l ",
"l l A.A.G.J.J.G.!.U.H.Y.R.C Z eX7Xo o cXxX8X6X1 9 0X0X=XqX< < X.V W Z 6 h   # J.F.G.E.!.H.J.I.D.A.l ",
"P.H.S.D.H.T.H.H.^.Y.F.H.L.XX%XiXiXjXgXjXjXuXaX=X=X0X5X-X-X8 8 ] ] } ] 7 r L.L.J.J.U.U.F.I.!.A.J.A.A.",
"J.H.J.D.H.J.G.z I.!.F.H.R.OX@XaXaXuXlXgXpXaXaX$X-X=X-X5X-X8 8 ] { { V B b F.I.E.L.W.W.l F.J.S.I.A.A.",
"S.H.J.J.J.U.T.I.J.U.H.I.L.Q.OXG s kXhXhXiX=X-X-X*X*X$X5 w V [ O o . o F J.z J.R.H.D.Y.S.G.G.H.F.A.S.",
"J.U.J.G.J.!.^.U.Z.Z.J.H.Y.Y.].b B iXiXiXyXeX-X-X*X*X*X3 5 Q C + . X + F.z F.J.U.S.F.A.H.G.F.J.F.A.I.",
"J.H.U.J.H.I.J.I.H.F.E.U.U.U.Y.W.Q.W { +.( a ( 6X6X1 3 2 7 ; r XX+X- - Y.I.S.D.W.Y.J.F.K.H.H.J.H.D.J.",
"U.Y.H.H.J.J.J.F.A.F.F.G.F.F F G.Q.A I a ( @.W rX5X3 3 3 < w g _._.3 g /.^.!.S.Z.T.H.Z.H.H.J.H.G.G.S.",
"Y.Y.H.J.Y.J.F.G.G.z G.T.D.H.J.A.F.Q.OXW I rX2X4XrX'. X` _ #X).}.}.(._.3 b Y.U.l D.J.Z.Z.H.H.J.F.S.S.",
"H.F.I.I.H.H.F.J.H.z H.T.J.J.!.].R./.Q.P I tXtX4X2XoX#X) _ |.{.{.{.(..X3 x F.U.l J.~.J.H.F.H.F.H.G.A.",
"Z.F.A.H.J.J.G.I.U.l l S I.A.U.Y.R.N p 9.&.o   n 6 h h o O  X{.`.`.k k O & I.J.!.H.T.!.J.A.A.A.H.H.G.",
"A.l A.H.J.U.J.F.A.Y.G.J.].T.Y.A.K.D i &.*..   r : d d . O oX'.{.}.j k & + R.J.!.T.[.U.H.F.z G.A.S.D.",
"A.A.D.H.F.J.A.l l I.H.I.H.Y.I.J.I.f : + o gXpXjXaXU d   . V ` ` ' |. XO # R.J.F.Y.T.A.A.F.F.A.F.A.D.",
"A.A.A.A.F.A.l Z.A.F.F.A.F.I.Y.U.L.M d   . lXkXyXhXH U   o $.V ] _ |.'.O + P.F.U.F.A.G.G.H.H.A.A.D.A.",
"A.A.F.A.F.F.F.A.A.F.H.G.F.J.T.P.K.N d   o 5X5XeX8Xi > J i O + #XoXk $.o + G.F.I.J.H.F.J.U.G.A.H.D.D.",
"A.A.H.F.A.F.J.H.F.F.J.J.G.F l I.Y.N M   . rX8X5X<XT U J J + + XX+Xb ! X * G.U.!.F.U.J.H.J.J.J.J.A.A.",
"Z.A.H.F.A.F.H.G.A.H.J.J.I.H.I.J.I.!.].M :   .   @ Y :X:X;X$   @ X # X J.J.G.T.Y.F.H.J.J.J.J.J.G.l l ",
"A.A.F.J.J.J.J.F.F.H.T.G.A.H.R.F.I.I.L.f f   o o @ ~ ~ ;X>X$ $   @ @ * J.J.F.F.H.F.F.F.U.U.J.G.F.l l ",
"A.A.A.D.H.J.L.H.H.F.F.H.F.J.Y.J.F.U.l @ X =.+.5./ #.=.a I & % K.P.R.P.J.F.H.K.H.H.H.H.F.J.J.F.A.A.A.",
"l A.S.I.J.J.G.F.F.A.F.A.F.A.I.Y.H.H.F.* X W 3.+.5.>./ a s & - K.F.H.J.J.S G.J.H.J.F.A.H.I.H.F.A.A.A.",
"A.A.F.H.I.F.A.F.Z.F.J.A.A.Z.F.I.J.F.F.J.z + O O O o + + & K.F.H.H.G.H.J.F.F.J.J.F.A.Z.I.T.J.F.Z.A.l ",
"A.A.J.J.J.A.A.Z.A.A.A.F.F.F.J.I.H.A.F.G.A.# # X + @   % = G.F.H.H.F.G.J.G.G.F.F.A.F.S.~.T.A.U.I.A.S.",
"!.U.J.H.J.J.A.A.A.A.A.A.F.A.H.H.S.A.G.A.z z A.J.G.l F A.l H.D.S.J.H.H.A.F.S.J.S.G.A.S.T.^.l D.I.A.I.",
"!.J.A.H.H.J.A.G.G.H.A.A.A.D.A.A.A.J.T.J.D.A.z A.z l l A.I.I.A.J.J.J.J.A.A.A.J.H.S.G.U.A.J.U.l A.!.I."
};
